<?xml version="1.0" encoding="UTF-8" standalone="no"?>
<!DOCTYPE svg PUBLIC "-//W3C//DTD SVG 1.1//EN"
 "http://www.w3.org/Graphics/SVG/1.1/DTD/svg11.dtd">
<!-- Generated by graphviz version 2.43.0 (0)
 -->
<!-- Title: demo::core::Logger::instance Pages: 1 -->
<svg width="437pt" height="53pt"
 viewBox="0.00 0.00 437.00 52.50" xmlns="http://www.w3.org/2000/svg" xmlns:xlink="http://www.w3.org/1999/xlink">
<g id="graph0" class="graph" transform="scale(1 1) rotate(0) translate(4 48.5)">
<title>demo::core::Logger::instance</title>
<!-- Node1 -->
<g id="node1" class="node">
<title>Node1</title>
<g id="a_node1"><a xlink:title="单例">
<polygon fill="#bfbfbf" stroke="black" points="319,-14 319,-44 429,-44 429,-14 319,-14"/>
<text text-anchor="start" x="327" y="-32" font-family="Helvetica,sans-Serif" font-size="10.00">demo::core::Logger</text>
<text text-anchor="middle" x="374" y="-21" font-family="Helvetica,sans-Serif" font-size="10.00">::instance</text>
</a>
</g>
</g>
<!-- Node2 -->
<g id="node2" class="node">
<title>Node2</title>
<g id="a_node2"><a xlink:href="main_8cpp.html#af9a602434c9c1a1b4e76795395865330" target="_top" xlink:title="业务主流程">
<polygon fill="none" stroke="black" points="77,-19.5 77,-38.5 109,-38.5 109,-19.5 77,-19.5"/>
<text text-anchor="middle" x="93" y="-26.5" font-family="Helvetica,sans-Serif" font-size="10.00">run</text>
</a>
</g>
</g>
<!-- Node1&#45;&gt;Node2 -->
<g id="edge1" class="edge">
<title>Node1&#45;&gt;Node2</title>
<path fill="none" stroke="midnightblue" d="M308.65,-29C243.2,-29 146.29,-29 109.2,-29"/>
<polygon fill="midnightblue" stroke="midnightblue" points="308.88,-32.5 318.88,-29 308.88,-25.5 308.88,-32.5"/>
</g>
<!-- Node4 -->
<g id="node4" class="node">
<title>Node4</title>
<g id="a_node4"><a xlink:href="classdemo_1_1algo_1_1Pipeline.html#ac153a7af3483760fd8d086848ebd83e8" target="_top" xlink:title="从 Reader 读取、经过各阶段，构建 AST 并求值">
<polygon fill="none" stroke="black" points="145,-0.5 145,-19.5 283,-19.5 283,-0.5 145,-0.5"/>
<text text-anchor="middle" x="214" y="-7.5" font-family="Helvetica,sans-Serif" font-size="10.00">demo::algo::Pipeline::run</text>
</a>
</g>
</g>
<!-- Node1&#45;&gt;Node4 -->
<g id="edge3" class="edge">
<title>Node1&#45;&gt;Node4</title>
<path fill="none" stroke="midnightblue" d="M308.55,-21.25C300.18,-20.24 291.58,-19.21 283.15,-18.2"/>
<polygon fill="midnightblue" stroke="midnightblue" points="308.28,-24.74 318.63,-22.46 309.11,-17.79 308.28,-24.74"/>
</g>
<!-- Node3 -->
<g id="node3" class="node">
<title>Node3</title>
<g id="a_node3"><a xlink:href="main_8cpp.html#ae66f6b31b5ad750f1fe042a706a4e3d4" target="_top" xlink:title=" ">
<polygon fill="none" stroke="black" points="0,-19.5 0,-38.5 41,-38.5 41,-19.5 0,-19.5"/>
<text text-anchor="middle" x="20.5" y="-26.5" font-family="Helvetica,sans-Serif" font-size="10.00">main</text>
</a>
</g>
</g>
<!-- Node2&#45;&gt;Node3 -->
<g id="edge2" class="edge">
<title>Node2&#45;&gt;Node3</title>
<path fill="none" stroke="midnightblue" d="M66.64,-29C58.22,-29 48.98,-29 41.06,-29"/>
<polygon fill="midnightblue" stroke="midnightblue" points="66.7,-32.5 76.7,-29 66.7,-25.5 66.7,-32.5"/>
</g>
<!-- Node4&#45;&gt;Node2 -->
<g id="edge4" class="edge">
<title>Node4&#45;&gt;Node2</title>
<path fill="none" stroke="midnightblue" d="M142.95,-21.19C130.34,-23.2 118.38,-25.11 109.45,-26.53"/>
<polygon fill="midnightblue" stroke="midnightblue" points="143.83,-24.59 153.15,-19.56 142.72,-17.68 143.83,-24.59"/>
</g>
</g>
</svg>
