<?xml version="1.0" encoding="UTF-8" standalone="no"?>
<!DOCTYPE svg PUBLIC "-//W3C//DTD SVG 1.1//EN"
 "http://www.w3.org/Graphics/SVG/1.1/DTD/svg11.dtd">
<!-- Generated by graphviz version 2.43.0 (0)
 -->
<!-- Title: demo::algo::Pipeline::run Pages: 1 -->
<svg width="479pt" height="411pt"
 viewBox="0.00 0.00 479.00 411.00" xmlns="http://www.w3.org/2000/svg" xmlns:xlink="http://www.w3.org/1999/xlink">
<g id="graph0" class="graph" transform="scale(1 1) rotate(0) translate(4 407)">
<title>demo::algo::Pipeline::run</title>
<!-- Node1 -->
<g id="node1" class="node">
<title>Node1</title>
<g id="a_node1"><a xlink:title="从 Reader 读取、经过各阶段，构建 AST 并求值">
<polygon fill="#bfbfbf" stroke="black" points="0,-192 0,-211 138,-211 138,-192 0,-192"/>
<text text-anchor="middle" x="69" y="-199" font-family="Helvetica,sans-Serif" font-size="10.00">demo::algo::Pipeline::run</text>
</a>
</g>
</g>
<!-- Node2 -->
<g id="node2" class="node">
<title>Node2</title>
<g id="a_node2"><a xlink:href="classdemo_1_1util_1_1Result.html#a850bbe580231c5a29f466dba6cea0109" target="_top" xlink:title=" ">
<polygon fill="none" stroke="black" points="198,-372.5 198,-402.5 301,-402.5 301,-372.5 198,-372.5"/>
<text text-anchor="start" x="206" y="-390.5" font-family="Helvetica,sans-Serif" font-size="10.00">demo::util::Result</text>
<text text-anchor="middle" x="249.5" y="-379.5" font-family="Helvetica,sans-Serif" font-size="10.00">::error</text>
</a>
</g>
</g>
<!-- Node1&#45;&gt;Node2 -->
<g id="edge1" class="edge">
<title>Node1&#45;&gt;Node2</title>
<path fill="none" stroke="midnightblue" d="M73.48,-211.17C84.03,-239.11 118.38,-320.7 174,-363.5 178.38,-366.87 183.24,-369.77 188.32,-372.27"/>
<polygon fill="midnightblue" stroke="midnightblue" points="187.09,-375.55 197.66,-376.35 189.9,-369.14 187.09,-375.55"/>
</g>
<!-- Node3 -->
<g id="node3" class="node">
<title>Node3</title>
<g id="a_node3"><a xlink:href="classdemo_1_1core_1_1Logger.html#a5f90af942c703c02ac97e42e2f4db959" target="_top" xlink:title=" ">
<polygon fill="none" stroke="black" points="194.5,-323.5 194.5,-353.5 304.5,-353.5 304.5,-323.5 194.5,-323.5"/>
<text text-anchor="start" x="202.5" y="-341.5" font-family="Helvetica,sans-Serif" font-size="10.00">demo::core::Logger</text>
<text text-anchor="middle" x="249.5" y="-330.5" font-family="Helvetica,sans-Serif" font-size="10.00">::error</text>
</a>
</g>
</g>
<!-- Node1&#45;&gt;Node3 -->
<g id="edge2" class="edge">
<title>Node1&#45;&gt;Node3</title>
<path fill="none" stroke="midnightblue" d="M76.35,-211.1C91.02,-232.55 129.41,-284.72 174,-313.5 177.55,-315.79 181.32,-317.89 185.22,-319.81"/>
<polygon fill="midnightblue" stroke="midnightblue" points="183.94,-323.08 194.5,-323.99 186.82,-316.69 183.94,-323.08"/>
</g>
<!-- Node5 -->
<g id="node5" class="node">
<title>Node5</title>
<g id="a_node5"><a xlink:href="structdemo_1_1core_1_1Node.html#ab27d1b26675169a393394794686d5986" target="_top" xlink:title="计算值">
<polygon fill="none" stroke="black" points="184.5,-285 184.5,-304 314.5,-304 314.5,-285 184.5,-285"/>
<text text-anchor="middle" x="249.5" y="-292" font-family="Helvetica,sans-Serif" font-size="10.00">demo::core::Node::eval</text>
</a>
</g>
</g>
<!-- Node1&#45;&gt;Node5 -->
<g id="edge4" class="edge">
<title>Node1&#45;&gt;Node5</title>
<path fill="none" stroke="midnightblue" d="M80.69,-211.18C98.65,-226.96 136.61,-258.17 174,-275.5 179.28,-277.95 184.91,-280.11 190.64,-282.02"/>
<polygon fill="midnightblue" stroke="midnightblue" points="189.71,-285.39 200.3,-284.99 191.77,-278.7 189.71,-285.39"/>
</g>
<!-- Node6 -->
<g id="node6" class="node">
<title>Node6</title>
<g id="a_node6"><a xlink:href="classdemo_1_1util_1_1Result.html#ab493a4bc44d0c7abbbae54d409a5980f" target="_top" xlink:title=" ">
<polygon fill="none" stroke="black" points="198,-235.5 198,-265.5 301,-265.5 301,-235.5 198,-235.5"/>
<text text-anchor="start" x="206" y="-253.5" font-family="Helvetica,sans-Serif" font-size="10.00">demo::util::Result</text>
<text text-anchor="middle" x="249.5" y="-242.5" font-family="Helvetica,sans-Serif" font-size="10.00">::has_value</text>
</a>
</g>
</g>
<!-- Node1&#45;&gt;Node6 -->
<g id="edge5" class="edge">
<title>Node1&#45;&gt;Node6</title>
<path fill="none" stroke="midnightblue" d="M104.84,-211.06C128.42,-217.54 160.21,-226.26 187.88,-233.86"/>
<polygon fill="midnightblue" stroke="midnightblue" points="187.3,-237.33 197.87,-236.6 189.15,-230.58 187.3,-237.33"/>
</g>
<!-- Node7 -->
<g id="node7" class="node">
<title>Node7</title>
<g id="a_node7"><a xlink:href="classdemo_1_1core_1_1Logger.html#ac85d0c6081d9b29f67de2a4d835ec425" target="_top" xlink:title=" ">
<polygon fill="none" stroke="black" points="194.5,-186.5 194.5,-216.5 304.5,-216.5 304.5,-186.5 194.5,-186.5"/>
<text text-anchor="start" x="202.5" y="-204.5" font-family="Helvetica,sans-Serif" font-size="10.00">demo::core::Logger</text>
<text text-anchor="middle" x="249.5" y="-193.5" font-family="Helvetica,sans-Serif" font-size="10.00">::info</text>
</a>
</g>
</g>
<!-- Node1&#45;&gt;Node7 -->
<g id="edge6" class="edge">
<title>Node1&#45;&gt;Node7</title>
<path fill="none" stroke="midnightblue" d="M138.25,-201.5C153.36,-201.5 169.33,-201.5 184.27,-201.5"/>
<polygon fill="midnightblue" stroke="midnightblue" points="184.44,-205 194.44,-201.5 184.44,-198 184.44,-205"/>
</g>
<!-- Node8 -->
<g id="node8" class="node">
<title>Node8</title>
<g id="a_node8"><a xlink:href="classdemo_1_1core_1_1Logger.html#af66c9418ab349f51eb7cc99af7698f71" target="_top" xlink:title="单例">
<polygon fill="none" stroke="black" points="194.5,-137.5 194.5,-167.5 304.5,-167.5 304.5,-137.5 194.5,-137.5"/>
<text text-anchor="start" x="202.5" y="-155.5" font-family="Helvetica,sans-Serif" font-size="10.00">demo::core::Logger</text>
<text text-anchor="middle" x="249.5" y="-144.5" font-family="Helvetica,sans-Serif" font-size="10.00">::instance</text>
</a>
</g>
</g>
<!-- Node1&#45;&gt;Node8 -->
<g id="edge8" class="edge">
<title>Node1&#45;&gt;Node8</title>
<path fill="none" stroke="midnightblue" d="M104.84,-191.94C127.52,-185.71 157.78,-177.4 184.68,-170.02"/>
<polygon fill="midnightblue" stroke="midnightblue" points="185.7,-173.37 194.42,-167.35 183.85,-166.62 185.7,-173.37"/>
</g>
<!-- Node9 -->
<g id="node9" class="node">
<title>Node9</title>
<g id="a_node9"><a xlink:href="structdemo_1_1io_1_1Reader.html#a0fa99939659aa94b0c94a35d3f14a150" target="_top" xlink:title=" ">
<polygon fill="none" stroke="black" points="174,-99 174,-118 325,-118 325,-99 174,-99"/>
<text text-anchor="middle" x="249.5" y="-106" font-family="Helvetica,sans-Serif" font-size="10.00">demo::io::Reader::read_one</text>
</a>
</g>
</g>
<!-- Node1&#45;&gt;Node9 -->
<g id="edge9" class="edge">
<title>Node1&#45;&gt;Node9</title>
<path fill="none" stroke="midnightblue" d="M81.03,-191.76C99.18,-176.21 137.03,-145.78 174,-128.5 180.03,-125.68 186.53,-123.2 193.09,-121.04"/>
<polygon fill="midnightblue" stroke="midnightblue" points="194.16,-124.37 202.69,-118.09 192.1,-117.68 194.16,-124.37"/>
</g>
<!-- Node10 -->
<g id="node10" class="node">
<title>Node10</title>
<g id="a_node10"><a xlink:href="classdemo_1_1algo_1_1Pipeline.html#a0065463cfab07534e5bf4e05cf818e35" target="_top" xlink:title=" ">
<polygon fill="none" stroke="black" points="191.5,-49.5 191.5,-79.5 307.5,-79.5 307.5,-49.5 191.5,-49.5"/>
<text text-anchor="start" x="199.5" y="-67.5" font-family="Helvetica,sans-Serif" font-size="10.00">demo::algo::Pipeline</text>
<text text-anchor="middle" x="249.5" y="-56.5" font-family="Helvetica,sans-Serif" font-size="10.00">::to_string</text>
</a>
</g>
</g>
<!-- Node1&#45;&gt;Node10 -->
<g id="edge10" class="edge">
<title>Node1&#45;&gt;Node10</title>
<path fill="none" stroke="midnightblue" d="M76.35,-191.9C91.02,-170.45 129.41,-118.28 174,-89.5 177.11,-87.5 180.39,-85.64 183.78,-83.91"/>
<polygon fill="midnightblue" stroke="midnightblue" points="185.34,-87.04 192.94,-79.66 182.39,-80.69 185.34,-87.04"/>
</g>
<!-- Node11 -->
<g id="node11" class="node">
<title>Node11</title>
<g id="a_node11"><a xlink:href="classdemo_1_1util_1_1Result.html#a2ab4ccd52b1dc6069d18ea993d8b586c" target="_top" xlink:title=" ">
<polygon fill="none" stroke="black" points="198,-0.5 198,-30.5 301,-30.5 301,-0.5 198,-0.5"/>
<text text-anchor="start" x="206" y="-18.5" font-family="Helvetica,sans-Serif" font-size="10.00">demo::util::Result</text>
<text text-anchor="middle" x="249.5" y="-7.5" font-family="Helvetica,sans-Serif" font-size="10.00">::value</text>
</a>
</g>
</g>
<!-- Node1&#45;&gt;Node11 -->
<g id="edge11" class="edge">
<title>Node1&#45;&gt;Node11</title>
<path fill="none" stroke="midnightblue" d="M73.52,-191.93C84.19,-164.25 118.82,-83.37 174,-40.5 178.38,-37.1 183.24,-34.15 188.33,-31.59"/>
<polygon fill="midnightblue" stroke="midnightblue" points="189.98,-34.69 197.66,-27.4 187.11,-28.3 189.98,-34.69"/>
</g>
<!-- Node4 -->
<g id="node4" class="node">
<title>Node4</title>
<g id="a_node4"><a xlink:href="structdemo_1_1core_1_1Logger_1_1Impl.html#a2b0c247454fd6a6ba05da6372f1747ee" target="_top" xlink:title=" ">
<polygon fill="none" stroke="black" points="361,-254.5 361,-284.5 471,-284.5 471,-254.5 361,-254.5"/>
<text text-anchor="start" x="369" y="-272.5" font-family="Helvetica,sans-Serif" font-size="10.00">demo::core::Logger</text>
<text text-anchor="middle" x="416" y="-261.5" font-family="Helvetica,sans-Serif" font-size="10.00">::Impl::log</text>
</a>
</g>
</g>
<!-- Node3&#45;&gt;Node4 -->
<g id="edge3" class="edge">
<title>Node3&#45;&gt;Node4</title>
<path fill="none" stroke="midnightblue" d="M298.53,-323.41C307.41,-320.33 316.54,-316.97 325,-313.5 342.62,-306.27 361.64,-297.18 377.63,-289.13"/>
<polygon fill="midnightblue" stroke="midnightblue" points="379.33,-292.19 386.66,-284.54 376.16,-285.95 379.33,-292.19"/>
</g>
<!-- Node7&#45;&gt;Node4 -->
<g id="edge7" class="edge">
<title>Node7&#45;&gt;Node4</title>
<path fill="none" stroke="midnightblue" d="M298.11,-216.51C307.11,-219.62 316.4,-223.02 325,-226.5 342.31,-233.51 361,-242.24 376.85,-250"/>
<polygon fill="midnightblue" stroke="midnightblue" points="375.3,-253.14 385.81,-254.44 378.4,-246.87 375.3,-253.14"/>
</g>
</g>
</svg>
