<?xml version="1.0" encoding="UTF-8" standalone="no"?>
<!DOCTYPE svg PUBLIC "-//W3C//DTD SVG 1.1//EN"
 "http://www.w3.org/Graphics/SVG/1.1/DTD/svg11.dtd">
<!-- Generated by graphviz version 2.43.0 (0)
 -->
<!-- Title: include Pages: 1 -->
<svg width="166pt" height="220pt"
 viewBox="0.00 0.00 166.00 220.00" xmlns="http://www.w3.org/2000/svg" xmlns:xlink="http://www.w3.org/1999/xlink">
<g id="graph0" class="graph" transform="scale(1 1) rotate(0) translate(4 216)">
<title>include</title>
<g id="clust1" class="cluster">
<title>clusterdir_d44c64559bbebec7f509842c48db8b23</title>
<g id="a_clust1"><a xlink:href="dir_d44c64559bbebec7f509842c48db8b23.html" target="_top">
<polygon fill="#eeeeff" stroke="black" points="8,-8 8,-204 150,-204 150,-8 8,-8"/>
</a>
</g>
</g>
<!-- dir_d44c64559bbebec7f509842c48db8b23 -->
<g id="node1" class="node">
<title>dir_d44c64559bbebec7f509842c48db8b23</title>
<text text-anchor="middle" x="115" y="-175.5" font-family="Helvetica,sans-Serif" font-size="10.00">include</text>
</g>
<!-- dir_7b63dab485b2753ac9ee90fb2fccf90c -->
<g id="node2" class="node">
<title>dir_7b63dab485b2753ac9ee90fb2fccf90c</title>
<g id="a_node2"><a xlink:href="dir_7b63dab485b2753ac9ee90fb2fccf90c.html" target="_top" xlink:title="algo">
<polygon fill="white" stroke="black" points="70,-196 16,-196 16,-160 70,-160 70,-196"/>
<text text-anchor="middle" x="43" y="-175.5" font-family="Helvetica,sans-Serif" font-size="10.00">algo</text>
</a>
</g>
</g>
<!-- dir_3d69f64eaf81436fe2b22361382717e5 -->
<g id="node3" class="node">
<title>dir_3d69f64eaf81436fe2b22361382717e5</title>
<g id="a_node3"><a xlink:href="dir_3d69f64eaf81436fe2b22361382717e5.html" target="_top" xlink:title="core">
<polygon fill="white" stroke="black" points="70,-124 16,-124 16,-88 70,-88 70,-124"/>
<text text-anchor="middle" x="43" y="-103.5" font-family="Helvetica,sans-Serif" font-size="10.00">core</text>
</a>
</g>
</g>
<!-- dir_7b63dab485b2753ac9ee90fb2fccf90c&#45;&gt;dir_3d69f64eaf81436fe2b22361382717e5 -->
<g id="edge1" class="edge">
<title>dir_7b63dab485b2753ac9ee90fb2fccf90c&#45;&gt;dir_3d69f64eaf81436fe2b22361382717e5</title>
<path fill="none" stroke="black" d="M43,-159.7C43,-151.98 43,-142.71 43,-134.11"/>
<polygon fill="black" stroke="black" points="46.5,-134.1 43,-124.1 39.5,-134.1 46.5,-134.1"/>
<g id="a_edge1&#45;headlabel"><a xlink:href="dir_000002_000003.html" target="_top" xlink:title="2">
<text text-anchor="middle" x="49.34" y="-135.2" font-family="Helvetica,sans-Serif" font-size="10.00">2</text>
</a>
</g>
</g>
<!-- dir_a00b633439466cbb1729245c7f66f564 -->
<g id="node4" class="node">
<title>dir_a00b633439466cbb1729245c7f66f564</title>
<g id="a_node4"><a xlink:href="dir_a00b633439466cbb1729245c7f66f564.html" target="_top" xlink:title="io">
<polygon fill="white" stroke="black" points="142,-124 88,-124 88,-88 142,-88 142,-124"/>
<text text-anchor="middle" x="115" y="-103.5" font-family="Helvetica,sans-Serif" font-size="10.00">io</text>
</a>
</g>
</g>
<!-- dir_7b63dab485b2753ac9ee90fb2fccf90c&#45;&gt;dir_a00b633439466cbb1729245c7f66f564 -->
<g id="edge2" class="edge">
<title>dir_7b63dab485b2753ac9ee90fb2fccf90c&#45;&gt;dir_a00b633439466cbb1729245c7f66f564</title>
<path fill="none" stroke="black" d="M60.8,-159.7C69.6,-151.14 80.38,-140.66 90,-131.3"/>
<polygon fill="black" stroke="black" points="92.68,-133.58 97.41,-124.1 87.8,-128.57 92.68,-133.58"/>
<g id="a_edge2&#45;headlabel"><a xlink:href="dir_000002_000004.html" target="_top" xlink:title="1">
<text text-anchor="middle" x="92.08" y="-135.63" font-family="Helvetica,sans-Serif" font-size="10.00">1</text>
</a>
</g>
</g>
<!-- dir_586ad3c2f85d776b984733890d824e3e -->
<g id="node5" class="node">
<title>dir_586ad3c2f85d776b984733890d824e3e</title>
<g id="a_node5"><a xlink:href="dir_586ad3c2f85d776b984733890d824e3e.html" target="_top" xlink:title="util">
<polygon fill="white" stroke="black" points="142,-52 88,-52 88,-16 142,-16 142,-52"/>
<text text-anchor="middle" x="115" y="-31.5" font-family="Helvetica,sans-Serif" font-size="10.00">util</text>
</a>
</g>
</g>
<!-- dir_a00b633439466cbb1729245c7f66f564&#45;&gt;dir_586ad3c2f85d776b984733890d824e3e -->
<g id="edge3" class="edge">
<title>dir_a00b633439466cbb1729245c7f66f564&#45;&gt;dir_586ad3c2f85d776b984733890d824e3e</title>
<path fill="none" stroke="black" d="M115,-87.7C115,-79.98 115,-70.71 115,-62.11"/>
<polygon fill="black" stroke="black" points="118.5,-62.1 115,-52.1 111.5,-62.1 118.5,-62.1"/>
<g id="a_edge3&#45;headlabel"><a xlink:href="dir_000004_000005.html" target="_top" xlink:title="1">
<text text-anchor="middle" x="121.34" y="-63.2" font-family="Helvetica,sans-Serif" font-size="10.00">1</text>
</a>
</g>
</g>
</g>
</svg>
