<?xml version="1.0" encoding="UTF-8" standalone="no"?>
<!DOCTYPE svg PUBLIC "-//W3C//DTD SVG 1.1//EN"
 "http://www.w3.org/Graphics/SVG/1.1/DTD/svg11.dtd">
<!-- Generated by graphviz version 2.43.0 (0)
 -->
<!-- Title: seq Pages: 1 -->
<svg width="510pt" height="98pt"
 viewBox="0.00 0.00 510.00 98.00" xmlns="http://www.w3.org/2000/svg" xmlns:xlink="http://www.w3.org/1999/xlink">
<g id="graph0" class="graph" transform="scale(1 1) rotate(0) translate(4 94)">
<title>seq</title>
<polygon fill="white" stroke="transparent" points="-4,4 -4,-94 506,-94 506,4 -4,4"/>
<!-- main -->
<g id="node1" class="node">
<title>main</title>
<text text-anchor="middle" x="42" y="-41.3" font-family="Times,serif" font-size="14.00">run(path)</text>
</g>
<!-- pipe -->
<g id="node2" class="node">
<title>pipe</title>
<text text-anchor="middle" x="180.5" y="-41.3" font-family="Times,serif" font-size="14.00">Pipeline::run()</text>
</g>
<!-- main&#45;&gt;pipe -->
<g id="edge1" class="edge">
<title>main&#45;&gt;pipe</title>
<path fill="none" stroke="black" d="M84.32,-45C92.71,-45 101.73,-45 110.77,-45"/>
<polygon fill="black" stroke="black" points="110.94,-48.5 120.94,-45 110.94,-41.5 110.94,-48.5"/>
</g>
<!-- reader -->
<g id="node3" class="node">
<title>reader</title>
<text text-anchor="middle" x="426" y="-68.3" font-family="Times,serif" font-size="14.00">Reader::read_one()</text>
</g>
<!-- pipe&#45;&gt;reader -->
<g id="edge2" class="edge">
<title>pipe&#45;&gt;reader</title>
<path fill="none" stroke="black" d="M240.13,-51.5C269.98,-54.81 306.81,-58.89 339.73,-62.54"/>
<polygon fill="black" stroke="black" points="339.48,-66.04 349.81,-63.66 340.25,-59.08 339.48,-66.04"/>
</g>
<!-- logger -->
<g id="node4" class="node">
<title>logger</title>
<text text-anchor="middle" x="426" y="-14.3" font-family="Times,serif" font-size="14.00">Logger::info()</text>
</g>
<!-- pipe&#45;&gt;logger -->
<g id="edge3" class="edge">
<title>pipe&#45;&gt;logger</title>
<path fill="none" stroke="black" d="M240.35,-36.25C246.31,-35.45 252.27,-34.69 258,-34 291.26,-30.02 328.34,-26.38 359.09,-23.59"/>
<polygon fill="black" stroke="black" points="359.62,-27.06 369.26,-22.68 358.99,-20.09 359.62,-27.06"/>
<text text-anchor="middle" x="295" y="-37.8" font-family="Times,serif" font-size="14.00">AST dump</text>
</g>
</g>
</svg>
