<?xml version="1.0" encoding="UTF-8" standalone="no"?>
<!DOCTYPE svg PUBLIC "-//W3C//DTD SVG 1.1//EN"
 "http://www.w3.org/Graphics/SVG/1.1/DTD/svg11.dtd">
<!-- Generated by graphviz version 2.43.0 (0)
 -->
<!-- Title: Graphical Class Hierarchy Pages: 1 -->
<svg width="255pt" height="104pt"
 viewBox="0.00 0.00 255.00 104.00" xmlns="http://www.w3.org/2000/svg" xmlns:xlink="http://www.w3.org/1999/xlink">
<g id="graph0" class="graph" transform="scale(1 1) rotate(0) translate(4 100)">
<title>Graphical Class Hierarchy</title>
<!-- Node0 -->
<g id="node1" class="node">
<title>Node0</title>
<g id="a_node1"><a xlink:href="structdemo_1_1core_1_1Node.html" target="_top" xlink:title=" ">
<polygon fill="none" stroke="black" points="0,-38.5 0,-57.5 103,-57.5 103,-38.5 0,-38.5"/>
<text text-anchor="middle" x="51.5" y="-45.5" font-family="Helvetica,sans-Serif" font-size="10.00">demo::core::Node</text>
</a>
</g>
</g>
<!-- Node1 -->
<g id="node2" class="node">
<title>Node1</title>
<g id="a_node2"><a xlink:href="structdemo_1_1core_1_1Add.html" target="_top" xlink:title=" ">
<polygon fill="none" stroke="black" points="145,-76.5 145,-95.5 241,-95.5 241,-76.5 145,-76.5"/>
<text text-anchor="middle" x="193" y="-83.5" font-family="Helvetica,sans-Serif" font-size="10.00">demo::core::Add</text>
</a>
</g>
</g>
<!-- Node0&#45;&gt;Node1 -->
<g id="edge1" class="edge">
<title>Node0&#45;&gt;Node1</title>
<path fill="none" stroke="midnightblue" d="M97.46,-60.25C116.68,-65.48 138.8,-71.51 156.81,-76.41"/>
<polygon fill="midnightblue" stroke="midnightblue" points="98.27,-56.84 87.7,-57.59 96.43,-63.59 98.27,-56.84"/>
</g>
<!-- Node2 -->
<g id="node3" class="node">
<title>Node2</title>
<g id="a_node3"><a xlink:href="structdemo_1_1core_1_1Literal.html" target="_top" xlink:title=" ">
<polygon fill="none" stroke="black" points="139,-38.5 139,-57.5 247,-57.5 247,-38.5 139,-38.5"/>
<text text-anchor="middle" x="193" y="-45.5" font-family="Helvetica,sans-Serif" font-size="10.00">demo::core::Literal</text>
</a>
</g>
</g>
<!-- Node0&#45;&gt;Node2 -->
<g id="edge2" class="edge">
<title>Node0&#45;&gt;Node2</title>
<path fill="none" stroke="midnightblue" d="M113.41,-48C121.83,-48 130.43,-48 138.7,-48"/>
<polygon fill="midnightblue" stroke="midnightblue" points="113.26,-44.5 103.26,-48 113.26,-51.5 113.26,-44.5"/>
</g>
<!-- Node3 -->
<g id="node4" class="node">
<title>Node3</title>
<g id="a_node4"><a xlink:href="structdemo_1_1core_1_1Mul.html" target="_top" xlink:title=" ">
<polygon fill="none" stroke="black" points="145.5,-0.5 145.5,-19.5 240.5,-19.5 240.5,-0.5 145.5,-0.5"/>
<text text-anchor="middle" x="193" y="-7.5" font-family="Helvetica,sans-Serif" font-size="10.00">demo::core::Mul</text>
</a>
</g>
</g>
<!-- Node0&#45;&gt;Node3 -->
<g id="edge3" class="edge">
<title>Node0&#45;&gt;Node3</title>
<path fill="none" stroke="midnightblue" d="M97.46,-35.75C116.68,-30.52 138.8,-24.49 156.81,-19.59"/>
<polygon fill="midnightblue" stroke="midnightblue" points="96.43,-32.41 87.7,-38.41 98.27,-39.16 96.43,-32.41"/>
</g>
</g>
</svg>
