<?xml version="1.0" encoding="UTF-8" standalone="no"?>
<!DOCTYPE svg PUBLIC "-//W3C//DTD SVG 1.1//EN"
 "http://www.w3.org/Graphics/SVG/1.1/DTD/svg11.dtd">
<!-- Generated by graphviz version 2.43.0 (0)
 -->
<!-- Title: include/core/logger.hpp Pages: 1 -->
<svg width="288pt" height="140pt"
 viewBox="0.00 0.00 287.50 140.00" xmlns="http://www.w3.org/2000/svg" xmlns:xlink="http://www.w3.org/1999/xlink">
<g id="graph0" class="graph" transform="scale(1 1) rotate(0) translate(4 136)">
<title>include/core/logger.hpp</title>
<!-- Node1 -->
<g id="node1" class="node">
<title>Node1</title>
<g id="a_node1"><a xlink:title="线程安全 Logger（PImpl）">
<polygon fill="#bfbfbf" stroke="black" points="47,-112.5 47,-131.5 177,-131.5 177,-112.5 47,-112.5"/>
<text text-anchor="middle" x="112" y="-119.5" font-family="Helvetica,sans-Serif" font-size="10.00">include/core/logger.hpp</text>
</a>
</g>
</g>
<!-- Node2 -->
<g id="node2" class="node">
<title>Node2</title>
<g id="a_node2"><a xlink:href="logger_8cpp.html" target="_top" xlink:title=" ">
<polygon fill="none" stroke="black" points="0,-56.5 0,-75.5 84,-75.5 84,-56.5 0,-56.5"/>
<text text-anchor="middle" x="42" y="-63.5" font-family="Helvetica,sans-Serif" font-size="10.00">src/logger.cpp</text>
</a>
</g>
</g>
<!-- Node1&#45;&gt;Node2 -->
<g id="edge1" class="edge">
<title>Node1&#45;&gt;Node2</title>
<path fill="none" stroke="midnightblue" d="M92.69,-106.1C80.09,-96.38 64.07,-84.03 53.45,-75.83"/>
<polygon fill="midnightblue" stroke="midnightblue" points="90.7,-108.99 100.75,-112.32 94.97,-103.44 90.7,-108.99"/>
</g>
<!-- Node3 -->
<g id="node3" class="node">
<title>Node3</title>
<g id="a_node3"><a xlink:href="main_8cpp.html" target="_top" xlink:title=" ">
<polygon fill="none" stroke="black" points="121.5,-0.5 121.5,-19.5 200.5,-19.5 200.5,-0.5 121.5,-0.5"/>
<text text-anchor="middle" x="161" y="-7.5" font-family="Helvetica,sans-Serif" font-size="10.00">src/main.cpp</text>
</a>
</g>
</g>
<!-- Node1&#45;&gt;Node3 -->
<g id="edge2" class="edge">
<title>Node1&#45;&gt;Node3</title>
<path fill="none" stroke="midnightblue" d="M116.26,-102.47C119.65,-89.18 125,-71.05 132,-56 138.27,-42.52 148.03,-28.31 154.47,-19.55"/>
<polygon fill="midnightblue" stroke="midnightblue" points="112.83,-101.77 113.87,-112.31 119.63,-103.42 112.83,-101.77"/>
</g>
<!-- Node4 -->
<g id="node4" class="node">
<title>Node4</title>
<g id="a_node4"><a xlink:href="pipeline_8hpp.html" target="_top" xlink:title="可组合管线">
<polygon fill="none" stroke="black" points="140.5,-56.5 140.5,-75.5 279.5,-75.5 279.5,-56.5 140.5,-56.5"/>
<text text-anchor="middle" x="210" y="-63.5" font-family="Helvetica,sans-Serif" font-size="10.00">include/algo/pipeline.hpp</text>
</a>
</g>
</g>
<!-- Node1&#45;&gt;Node4 -->
<g id="edge3" class="edge">
<title>Node1&#45;&gt;Node4</title>
<path fill="none" stroke="midnightblue" d="M136.59,-107.45C154.68,-97.48 178.73,-84.23 194.29,-75.65"/>
<polygon fill="midnightblue" stroke="midnightblue" points="134.81,-104.43 127.75,-112.32 138.19,-110.56 134.81,-104.43"/>
</g>
<!-- Node4&#45;&gt;Node3 -->
<g id="edge4" class="edge">
<title>Node4&#45;&gt;Node3</title>
<path fill="none" stroke="midnightblue" d="M194.97,-48.43C186.38,-38.97 175.96,-27.48 168.94,-19.75"/>
<polygon fill="midnightblue" stroke="midnightblue" points="192.6,-51.03 201.91,-56.08 197.78,-46.33 192.6,-51.03"/>
</g>
</g>
</svg>
