<?xml version="1.0" encoding="UTF-8" standalone="no"?>
<!DOCTYPE svg PUBLIC "-//W3C//DTD SVG 1.1//EN"
 "http://www.w3.org/Graphics/SVG/1.1/DTD/svg11.dtd">
<!-- Generated by graphviz version 2.43.0 (0)
 -->
<!-- Title: src/logger.cpp Pages: 1 -->
<svg width="323pt" height="140pt"
 viewBox="0.00 0.00 323.00 140.00" xmlns="http://www.w3.org/2000/svg" xmlns:xlink="http://www.w3.org/1999/xlink">
<g id="graph0" class="graph" transform="scale(1 1) rotate(0) translate(4 136)">
<title>src/logger.cpp</title>
<!-- Node1 -->
<g id="node1" class="node">
<title>Node1</title>
<g id="a_node1"><a xlink:title=" ">
<polygon fill="#bfbfbf" stroke="black" points="151,-112.5 151,-131.5 235,-131.5 235,-112.5 151,-112.5"/>
<text text-anchor="middle" x="193" y="-119.5" font-family="Helvetica,sans-Serif" font-size="10.00">src/logger.cpp</text>
</a>
</g>
</g>
<!-- Node2 -->
<g id="node2" class="node">
<title>Node2</title>
<g id="a_node2"><a xlink:href="logger_8hpp.html" target="_top" xlink:title="线程安全 Logger（PImpl）">
<polygon fill="none" stroke="black" points="17,-56.5 17,-75.5 109,-75.5 109,-56.5 17,-56.5"/>
<text text-anchor="middle" x="63" y="-63.5" font-family="Helvetica,sans-Serif" font-size="10.00">core/logger.hpp</text>
</a>
</g>
</g>
<!-- Node1&#45;&gt;Node2 -->
<g id="edge1" class="edge">
<title>Node1&#45;&gt;Node2</title>
<path fill="none" stroke="midnightblue" d="M172.4,-112.44C151.01,-103.56 117.32,-89.56 92.98,-79.45"/>
<polygon fill="midnightblue" stroke="midnightblue" points="94.08,-76.12 83.5,-75.52 91.39,-82.58 94.08,-76.12"/>
</g>
<!-- Node5 -->
<g id="node5" class="node">
<title>Node5</title>
<g id="a_node5"><a xlink:title=" ">
<polygon fill="none" stroke="#bfbfbf" points="127,-56.5 127,-75.5 187,-75.5 187,-56.5 127,-56.5"/>
<text text-anchor="middle" x="157" y="-63.5" font-family="Helvetica,sans-Serif" font-size="10.00">iostream</text>
</a>
</g>
</g>
<!-- Node1&#45;&gt;Node5 -->
<g id="edge4" class="edge">
<title>Node1&#45;&gt;Node5</title>
<path fill="none" stroke="midnightblue" d="M187.06,-112.08C182.02,-104.53 174.66,-93.49 168.49,-84.23"/>
<polygon fill="midnightblue" stroke="midnightblue" points="171.29,-82.13 162.83,-75.75 165.47,-86.01 171.29,-82.13"/>
</g>
<!-- Node6 -->
<g id="node6" class="node">
<title>Node6</title>
<g id="a_node6"><a xlink:title=" ">
<polygon fill="none" stroke="#bfbfbf" points="205,-56.5 205,-75.5 253,-75.5 253,-56.5 205,-56.5"/>
<text text-anchor="middle" x="229" y="-63.5" font-family="Helvetica,sans-Serif" font-size="10.00">mutex</text>
</a>
</g>
</g>
<!-- Node1&#45;&gt;Node6 -->
<g id="edge5" class="edge">
<title>Node1&#45;&gt;Node6</title>
<path fill="none" stroke="midnightblue" d="M198.94,-112.08C203.98,-104.53 211.34,-93.49 217.51,-84.23"/>
<polygon fill="midnightblue" stroke="midnightblue" points="220.53,-86.01 223.17,-75.75 214.71,-82.13 220.53,-86.01"/>
</g>
<!-- Node7 -->
<g id="node7" class="node">
<title>Node7</title>
<g id="a_node7"><a xlink:title=" ">
<polygon fill="none" stroke="#bfbfbf" points="271,-56.5 271,-75.5 315,-75.5 315,-56.5 271,-56.5"/>
<text text-anchor="middle" x="293" y="-63.5" font-family="Helvetica,sans-Serif" font-size="10.00">ctime</text>
</a>
</g>
</g>
<!-- Node1&#45;&gt;Node7 -->
<g id="edge6" class="edge">
<title>Node1&#45;&gt;Node7</title>
<path fill="none" stroke="midnightblue" d="M209.07,-112.32C224.96,-103.74 249.51,-90.49 267.96,-80.52"/>
<polygon fill="midnightblue" stroke="midnightblue" points="269.84,-83.49 276.97,-75.65 266.51,-77.33 269.84,-83.49"/>
</g>
<!-- Node3 -->
<g id="node3" class="node">
<title>Node3</title>
<g id="a_node3"><a xlink:title=" ">
<polygon fill="none" stroke="#bfbfbf" points="0,-0.5 0,-19.5 58,-19.5 58,-0.5 0,-0.5"/>
<text text-anchor="middle" x="29" y="-7.5" font-family="Helvetica,sans-Serif" font-size="10.00">memory</text>
</a>
</g>
</g>
<!-- Node2&#45;&gt;Node3 -->
<g id="edge2" class="edge">
<title>Node2&#45;&gt;Node3</title>
<path fill="none" stroke="midnightblue" d="M57.39,-56.08C52.63,-48.53 45.68,-37.49 39.85,-28.23"/>
<polygon fill="midnightblue" stroke="midnightblue" points="42.8,-26.35 34.51,-19.75 36.88,-30.08 42.8,-26.35"/>
</g>
<!-- Node4 -->
<g id="node4" class="node">
<title>Node4</title>
<g id="a_node4"><a xlink:title=" ">
<polygon fill="none" stroke="#bfbfbf" points="76,-0.5 76,-19.5 120,-19.5 120,-0.5 76,-0.5"/>
<text text-anchor="middle" x="98" y="-7.5" font-family="Helvetica,sans-Serif" font-size="10.00">string</text>
</a>
</g>
</g>
<!-- Node2&#45;&gt;Node4 -->
<g id="edge3" class="edge">
<title>Node2&#45;&gt;Node4</title>
<path fill="none" stroke="midnightblue" d="M68.78,-56.08C73.67,-48.53 80.83,-37.49 86.83,-28.23"/>
<polygon fill="midnightblue" stroke="midnightblue" points="89.83,-30.05 92.33,-19.75 83.95,-26.24 89.83,-30.05"/>
</g>
</g>
</svg>
