<?xml version="1.0" encoding="UTF-8" standalone="no"?>
<!DOCTYPE svg PUBLIC "-//W3C//DTD SVG 1.1//EN"
 "http://www.w3.org/Graphics/SVG/1.1/DTD/svg11.dtd">
<!-- Generated by graphviz version 2.43.0 (0)
 -->
<!-- Title: run Pages: 1 -->
<svg width="547pt" height="465pt"
 viewBox="0.00 0.00 547.00 465.00" xmlns="http://www.w3.org/2000/svg" xmlns:xlink="http://www.w3.org/1999/xlink">
<g id="graph0" class="graph" transform="scale(1 1) rotate(0) translate(4 461)">
<title>run</title>
<!-- Node1 -->
<g id="node1" class="node">
<title>Node1</title>
<g id="a_node1"><a xlink:title="业务主流程">
<polygon fill="#bfbfbf" stroke="black" points="0,-143 0,-162 32,-162 32,-143 0,-143"/>
<text text-anchor="middle" x="16" y="-150" font-family="Helvetica,sans-Serif" font-size="10.00">run</text>
</a>
</g>
</g>
<!-- Node2 -->
<g id="node2" class="node">
<title>Node2</title>
<g id="a_node2"><a xlink:href="classdemo_1_1core_1_1Logger.html#ac85d0c6081d9b29f67de2a4d835ec425" target="_top" xlink:title=" ">
<polygon fill="none" stroke="black" points="262.5,-54.5 262.5,-84.5 372.5,-84.5 372.5,-54.5 262.5,-54.5"/>
<text text-anchor="start" x="270.5" y="-72.5" font-family="Helvetica,sans-Serif" font-size="10.00">demo::core::Logger</text>
<text text-anchor="middle" x="317.5" y="-61.5" font-family="Helvetica,sans-Serif" font-size="10.00">::info</text>
</a>
</g>
</g>
<!-- Node1&#45;&gt;Node2 -->
<g id="edge1" class="edge">
<title>Node1&#45;&gt;Node2</title>
<path fill="none" stroke="midnightblue" d="M32.23,-143.9C42.16,-138.58 55.55,-131.94 68,-127.5 129.03,-105.74 201.43,-89.91 252.29,-80.34"/>
<polygon fill="midnightblue" stroke="midnightblue" points="252.97,-83.77 262.17,-78.51 251.7,-76.89 252.97,-83.77"/>
</g>
<!-- Node4 -->
<g id="node4" class="node">
<title>Node4</title>
<g id="a_node4"><a xlink:href="classdemo_1_1core_1_1Logger.html#af66c9418ab349f51eb7cc99af7698f71" target="_top" xlink:title="单例">
<polygon fill="none" stroke="black" points="262.5,-426.5 262.5,-456.5 372.5,-456.5 372.5,-426.5 262.5,-426.5"/>
<text text-anchor="start" x="270.5" y="-444.5" font-family="Helvetica,sans-Serif" font-size="10.00">demo::core::Logger</text>
<text text-anchor="middle" x="317.5" y="-433.5" font-family="Helvetica,sans-Serif" font-size="10.00">::instance</text>
</a>
</g>
</g>
<!-- Node1&#45;&gt;Node4 -->
<g id="edge3" class="edge">
<title>Node1&#45;&gt;Node4</title>
<path fill="none" stroke="midnightblue" d="M19.88,-162.22C26.24,-182.6 42.92,-230.7 68,-264.5 129.37,-347.2 152.45,-366.65 242,-417.5 245.49,-419.48 249.17,-421.33 252.94,-423.04"/>
<polygon fill="midnightblue" stroke="midnightblue" points="251.89,-426.39 262.46,-427.02 254.59,-419.93 251.89,-426.39"/>
</g>
<!-- Node5 -->
<g id="node5" class="node">
<title>Node5</title>
<g id="a_node5"><a xlink:href="namespacedemo_1_1io.html#a99c19100d7ce7084ecae57022cde1916" target="_top" xlink:title=" ">
<polygon fill="none" stroke="black" points="80.5,-186.5 80.5,-216.5 193.5,-216.5 193.5,-186.5 80.5,-186.5"/>
<text text-anchor="start" x="88.5" y="-204.5" font-family="Helvetica,sans-Serif" font-size="10.00">demo::io::make_file</text>
<text text-anchor="middle" x="137" y="-193.5" font-family="Helvetica,sans-Serif" font-size="10.00">_reader</text>
</a>
</g>
</g>
<!-- Node1&#45;&gt;Node5 -->
<g id="edge4" class="edge">
<title>Node1&#45;&gt;Node5</title>
<path fill="none" stroke="midnightblue" d="M32.02,-159.99C42.1,-164.91 55.72,-171.37 68,-176.5 73.08,-178.62 78.4,-180.75 83.75,-182.82"/>
<polygon fill="midnightblue" stroke="midnightblue" points="82.75,-186.18 93.34,-186.46 85.23,-179.64 82.75,-186.18"/>
</g>
<!-- Node6 -->
<g id="node6" class="node">
<title>Node6</title>
<g id="a_node6"><a xlink:href="classdemo_1_1algo_1_1Pipeline.html#ad73beb9d7ed9c842f3912e37cff7d437" target="_top" xlink:title=" ">
<polygon fill="none" stroke="black" points="79,-137.5 79,-167.5 195,-167.5 195,-137.5 79,-137.5"/>
<text text-anchor="start" x="87" y="-155.5" font-family="Helvetica,sans-Serif" font-size="10.00">demo::algo::Pipeline</text>
<text text-anchor="middle" x="137" y="-144.5" font-family="Helvetica,sans-Serif" font-size="10.00">::Pipeline</text>
</a>
</g>
</g>
<!-- Node1&#45;&gt;Node6 -->
<g id="edge5" class="edge">
<title>Node1&#45;&gt;Node6</title>
<path fill="none" stroke="midnightblue" d="M32.07,-152.5C41.68,-152.5 54.89,-152.5 68.67,-152.5"/>
<polygon fill="midnightblue" stroke="midnightblue" points="68.76,-156 78.76,-152.5 68.76,-149 68.76,-156"/>
</g>
<!-- Node7 -->
<g id="node7" class="node">
<title>Node7</title>
<g id="a_node7"><a xlink:href="classdemo_1_1algo_1_1Pipeline.html#ac153a7af3483760fd8d086848ebd83e8" target="_top" xlink:title="从 Reader 读取、经过各阶段，构建 AST 并求值">
<polygon fill="none" stroke="black" points="68,-236 68,-255 206,-255 206,-236 68,-236"/>
<text text-anchor="middle" x="137" y="-243" font-family="Helvetica,sans-Serif" font-size="10.00">demo::algo::Pipeline::run</text>
</a>
</g>
</g>
<!-- Node1&#45;&gt;Node7 -->
<g id="edge6" class="edge">
<title>Node1&#45;&gt;Node7</title>
<path fill="none" stroke="midnightblue" d="M21.12,-162.12C28.31,-177.78 44.66,-208.71 68,-225.5 71.43,-227.97 75.16,-230.13 79.05,-232.03"/>
<polygon fill="midnightblue" stroke="midnightblue" points="77.78,-235.29 88.35,-235.99 80.52,-228.85 77.78,-235.29"/>
</g>
<!-- Node15 -->
<g id="node15" class="node">
<title>Node15</title>
<g id="a_node15"><a xlink:href="classdemo_1_1util_1_1ScopeGuard.html#af11bce4490434c288e4ae4573bf852f3" target="_top" xlink:title=" ">
<polygon fill="none" stroke="black" points="71.5,-49.5 71.5,-79.5 202.5,-79.5 202.5,-49.5 71.5,-49.5"/>
<text text-anchor="start" x="79.5" y="-67.5" font-family="Helvetica,sans-Serif" font-size="10.00">demo::util::ScopeGuard</text>
<text text-anchor="middle" x="137" y="-56.5" font-family="Helvetica,sans-Serif" font-size="10.00">::ScopeGuard</text>
</a>
</g>
</g>
<!-- Node1&#45;&gt;Node15 -->
<g id="edge17" class="edge">
<title>Node1&#45;&gt;Node15</title>
<path fill="none" stroke="midnightblue" d="M23.55,-142.71C32.38,-130.13 49.18,-108.29 68,-94.5 73.19,-90.7 78.94,-87.23 84.83,-84.13"/>
<polygon fill="midnightblue" stroke="midnightblue" points="86.73,-87.1 94.15,-79.54 83.63,-80.82 86.73,-87.1"/>
</g>
<!-- Node16 -->
<g id="node16" class="node">
<title>Node16</title>
<g id="a_node16"><a xlink:href="classdemo_1_1core_1_1Logger.html#aa8258448374ac4bafc6ef757bdb64483" target="_top" xlink:title=" ">
<polygon fill="none" stroke="black" points="82,-0.5 82,-30.5 192,-30.5 192,-0.5 82,-0.5"/>
<text text-anchor="start" x="90" y="-18.5" font-family="Helvetica,sans-Serif" font-size="10.00">demo::core::Logger</text>
<text text-anchor="middle" x="137" y="-7.5" font-family="Helvetica,sans-Serif" font-size="10.00">::set_level</text>
</a>
</g>
</g>
<!-- Node1&#45;&gt;Node16 -->
<g id="edge18" class="edge">
<title>Node1&#45;&gt;Node16</title>
<path fill="none" stroke="midnightblue" d="M18.7,-142.82C23,-121.21 36.3,-68.62 68,-39.5 69.52,-38.1 71.13,-36.79 72.81,-35.54"/>
<polygon fill="midnightblue" stroke="midnightblue" points="75.09,-38.24 81.68,-29.95 71.36,-32.32 75.09,-38.24"/>
</g>
<!-- Node3 -->
<g id="node3" class="node">
<title>Node3</title>
<g id="a_node3"><a xlink:href="structdemo_1_1core_1_1Logger_1_1Impl.html#a2b0c247454fd6a6ba05da6372f1747ee" target="_top" xlink:title=" ">
<polygon fill="none" stroke="black" points="429,-215.5 429,-245.5 539,-245.5 539,-215.5 429,-215.5"/>
<text text-anchor="start" x="437" y="-233.5" font-family="Helvetica,sans-Serif" font-size="10.00">demo::core::Logger</text>
<text text-anchor="middle" x="484" y="-222.5" font-family="Helvetica,sans-Serif" font-size="10.00">::Impl::log</text>
</a>
</g>
</g>
<!-- Node2&#45;&gt;Node3 -->
<g id="edge2" class="edge">
<title>Node2&#45;&gt;Node3</title>
<path fill="none" stroke="midnightblue" d="M372.77,-82.91C379.97,-86.03 386.94,-89.85 393,-94.5 431.73,-124.25 459.13,-175.66 472.88,-206.03"/>
<polygon fill="midnightblue" stroke="midnightblue" points="469.8,-207.71 477.02,-215.46 476.21,-204.9 469.8,-207.71"/>
</g>
<!-- Node7&#45;&gt;Node2 -->
<g id="edge12" class="edge">
<title>Node7&#45;&gt;Node2</title>
<path fill="none" stroke="midnightblue" d="M191.19,-235.86C196.68,-233.19 201.77,-229.8 206,-225.5 248.31,-182.42 200.51,-138.37 242,-94.5 245.34,-90.97 249.19,-87.94 253.35,-85.33"/>
<polygon fill="midnightblue" stroke="midnightblue" points="255.09,-88.37 262.25,-80.57 251.78,-82.2 255.09,-88.37"/>
</g>
<!-- Node7&#45;&gt;Node4 -->
<g id="edge13" class="edge">
<title>Node7&#45;&gt;Node4</title>
<path fill="none" stroke="midnightblue" d="M144.91,-255.23C157.6,-273.26 185.23,-313.23 206,-348.5 223.55,-378.31 215.56,-395.2 242,-417.5 245.42,-420.39 249.2,-422.93 253.18,-425.17"/>
<polygon fill="midnightblue" stroke="midnightblue" points="251.65,-428.31 262.17,-429.59 254.74,-422.03 251.65,-428.31"/>
</g>
<!-- Node8 -->
<g id="node8" class="node">
<title>Node8</title>
<g id="a_node8"><a xlink:href="classdemo_1_1util_1_1Result.html#a850bbe580231c5a29f466dba6cea0109" target="_top" xlink:title=" ">
<polygon fill="none" stroke="black" points="266,-230.5 266,-260.5 369,-260.5 369,-230.5 266,-230.5"/>
<text text-anchor="start" x="274" y="-248.5" font-family="Helvetica,sans-Serif" font-size="10.00">demo::util::Result</text>
<text text-anchor="middle" x="317.5" y="-237.5" font-family="Helvetica,sans-Serif" font-size="10.00">::error</text>
</a>
</g>
</g>
<!-- Node7&#45;&gt;Node8 -->
<g id="edge7" class="edge">
<title>Node7&#45;&gt;Node8</title>
<path fill="none" stroke="midnightblue" d="M206.25,-245.5C222.48,-245.5 239.69,-245.5 255.56,-245.5"/>
<polygon fill="midnightblue" stroke="midnightblue" points="255.78,-249 265.78,-245.5 255.78,-242 255.78,-249"/>
</g>
<!-- Node9 -->
<g id="node9" class="node">
<title>Node9</title>
<g id="a_node9"><a xlink:href="classdemo_1_1core_1_1Logger.html#a5f90af942c703c02ac97e42e2f4db959" target="_top" xlink:title=" ">
<polygon fill="none" stroke="black" points="262.5,-377.5 262.5,-407.5 372.5,-407.5 372.5,-377.5 262.5,-377.5"/>
<text text-anchor="start" x="270.5" y="-395.5" font-family="Helvetica,sans-Serif" font-size="10.00">demo::core::Logger</text>
<text text-anchor="middle" x="317.5" y="-384.5" font-family="Helvetica,sans-Serif" font-size="10.00">::error</text>
</a>
</g>
</g>
<!-- Node7&#45;&gt;Node9 -->
<g id="edge8" class="edge">
<title>Node7&#45;&gt;Node9</title>
<path fill="none" stroke="midnightblue" d="M143.46,-255.07C157.08,-278.07 194.84,-336.9 242,-368.5 245.49,-370.84 249.23,-372.96 253.1,-374.89"/>
<polygon fill="midnightblue" stroke="midnightblue" points="251.77,-378.13 262.32,-379.04 254.64,-371.75 251.77,-378.13"/>
</g>
<!-- Node10 -->
<g id="node10" class="node">
<title>Node10</title>
<g id="a_node10"><a xlink:href="structdemo_1_1core_1_1Node.html#ab27d1b26675169a393394794686d5986" target="_top" xlink:title="计算值">
<polygon fill="none" stroke="black" points="252.5,-192 252.5,-211 382.5,-211 382.5,-192 252.5,-192"/>
<text text-anchor="middle" x="317.5" y="-199" font-family="Helvetica,sans-Serif" font-size="10.00">demo::core::Node::eval</text>
</a>
</g>
</g>
<!-- Node7&#45;&gt;Node10 -->
<g id="edge10" class="edge">
<title>Node7&#45;&gt;Node10</title>
<path fill="none" stroke="midnightblue" d="M176.73,-235.95C203.51,-229.35 239.35,-220.52 268.02,-213.45"/>
<polygon fill="midnightblue" stroke="midnightblue" points="268.97,-216.82 277.84,-211.03 267.3,-210.02 268.97,-216.82"/>
</g>
<!-- Node11 -->
<g id="node11" class="node">
<title>Node11</title>
<g id="a_node11"><a xlink:href="classdemo_1_1util_1_1Result.html#ab493a4bc44d0c7abbbae54d409a5980f" target="_top" xlink:title=" ">
<polygon fill="none" stroke="black" points="266,-142.5 266,-172.5 369,-172.5 369,-142.5 266,-142.5"/>
<text text-anchor="start" x="274" y="-160.5" font-family="Helvetica,sans-Serif" font-size="10.00">demo::util::Result</text>
<text text-anchor="middle" x="317.5" y="-149.5" font-family="Helvetica,sans-Serif" font-size="10.00">::has_value</text>
</a>
</g>
</g>
<!-- Node7&#45;&gt;Node11 -->
<g id="edge11" class="edge">
<title>Node7&#45;&gt;Node11</title>
<path fill="none" stroke="midnightblue" d="M184.26,-235.91C191.87,-233.22 199.41,-229.82 206,-225.5 226.85,-211.84 221.41,-196.55 242,-182.5 246.51,-179.42 251.43,-176.7 256.52,-174.29"/>
<polygon fill="midnightblue" stroke="midnightblue" points="258.01,-177.46 265.81,-170.29 255.24,-171.03 258.01,-177.46"/>
</g>
<!-- Node12 -->
<g id="node12" class="node">
<title>Node12</title>
<g id="a_node12"><a xlink:href="structdemo_1_1io_1_1Reader.html#a0fa99939659aa94b0c94a35d3f14a150" target="_top" xlink:title=" ">
<polygon fill="none" stroke="black" points="242,-104 242,-123 393,-123 393,-104 242,-104"/>
<text text-anchor="middle" x="317.5" y="-111" font-family="Helvetica,sans-Serif" font-size="10.00">demo::io::Reader::read_one</text>
</a>
</g>
</g>
<!-- Node7&#45;&gt;Node12 -->
<g id="edge14" class="edge">
<title>Node7&#45;&gt;Node12</title>
<path fill="none" stroke="midnightblue" d="M189.75,-235.89C195.69,-233.23 201.29,-229.83 206,-225.5 238.62,-195.49 208.84,-161.91 242,-132.5 243.74,-130.95 245.6,-129.53 247.54,-128.22"/>
<polygon fill="midnightblue" stroke="midnightblue" points="249.52,-131.12 256.52,-123.16 246.09,-125.02 249.52,-131.12"/>
</g>
<!-- Node13 -->
<g id="node13" class="node">
<title>Node13</title>
<g id="a_node13"><a xlink:href="classdemo_1_1algo_1_1Pipeline.html#a0065463cfab07534e5bf4e05cf818e35" target="_top" xlink:title=" ">
<polygon fill="none" stroke="black" points="259.5,-328.5 259.5,-358.5 375.5,-358.5 375.5,-328.5 259.5,-328.5"/>
<text text-anchor="start" x="267.5" y="-346.5" font-family="Helvetica,sans-Serif" font-size="10.00">demo::algo::Pipeline</text>
<text text-anchor="middle" x="317.5" y="-335.5" font-family="Helvetica,sans-Serif" font-size="10.00">::to_string</text>
</a>
</g>
</g>
<!-- Node7&#45;&gt;Node13 -->
<g id="edge15" class="edge">
<title>Node7&#45;&gt;Node13</title>
<path fill="none" stroke="midnightblue" d="M149.46,-255.23C167.9,-270.49 205.77,-300.19 242,-318.5 246.34,-320.69 250.91,-322.76 255.57,-324.69"/>
<polygon fill="midnightblue" stroke="midnightblue" points="254.62,-328.08 265.21,-328.47 257.17,-321.56 254.62,-328.08"/>
</g>
<!-- Node14 -->
<g id="node14" class="node">
<title>Node14</title>
<g id="a_node14"><a xlink:href="classdemo_1_1util_1_1Result.html#a2ab4ccd52b1dc6069d18ea993d8b586c" target="_top" xlink:title=" ">
<polygon fill="none" stroke="black" points="266,-279.5 266,-309.5 369,-309.5 369,-279.5 266,-279.5"/>
<text text-anchor="start" x="274" y="-297.5" font-family="Helvetica,sans-Serif" font-size="10.00">demo::util::Result</text>
<text text-anchor="middle" x="317.5" y="-286.5" font-family="Helvetica,sans-Serif" font-size="10.00">::value</text>
</a>
</g>
</g>
<!-- Node7&#45;&gt;Node14 -->
<g id="edge16" class="edge">
<title>Node7&#45;&gt;Node14</title>
<path fill="none" stroke="midnightblue" d="M172.84,-255.06C196.42,-261.54 228.21,-270.26 255.88,-277.86"/>
<polygon fill="midnightblue" stroke="midnightblue" points="255.3,-281.33 265.87,-280.6 257.15,-274.58 255.3,-281.33"/>
</g>
<!-- Node9&#45;&gt;Node3 -->
<g id="edge9" class="edge">
<title>Node9&#45;&gt;Node3</title>
<path fill="none" stroke="midnightblue" d="M372.79,-379.9C379.99,-376.87 386.95,-373.12 393,-368.5 432.21,-338.55 459.44,-286.3 473.04,-255.41"/>
<polygon fill="midnightblue" stroke="midnightblue" points="476.42,-256.38 477.12,-245.81 469.98,-253.64 476.42,-256.38"/>
</g>
</g>
</svg>
