<?xml version="1.0" encoding="UTF-8" standalone="no"?>
<!DOCTYPE svg PUBLIC "-//W3C//DTD SVG 1.1//EN"
 "http://www.w3.org/Graphics/SVG/1.1/DTD/svg11.dtd">
<!-- Generated by graphviz version 2.43.0 (0)
 -->
<!-- Title: main Pages: 1 -->
<svg width="624pt" height="465pt"
 viewBox="0.00 0.00 624.00 465.00" xmlns="http://www.w3.org/2000/svg" xmlns:xlink="http://www.w3.org/1999/xlink">
<g id="graph0" class="graph" transform="scale(1 1) rotate(0) translate(4 461)">
<title>main</title>
<!-- Node1 -->
<g id="node1" class="node">
<title>Node1</title>
<g id="a_node1"><a xlink:title=" ">
<polygon fill="#bfbfbf" stroke="black" points="0,-143 0,-162 41,-162 41,-143 0,-143"/>
<text text-anchor="middle" x="20.5" y="-150" font-family="Helvetica,sans-Serif" font-size="10.00">main</text>
</a>
</g>
</g>
<!-- Node2 -->
<g id="node2" class="node">
<title>Node2</title>
<g id="a_node2"><a xlink:href="main_8cpp.html#af9a602434c9c1a1b4e76795395865330" target="_top" xlink:title="业务主流程">
<polygon fill="none" stroke="black" points="77,-143 77,-162 109,-162 109,-143 77,-143"/>
<text text-anchor="middle" x="93" y="-150" font-family="Helvetica,sans-Serif" font-size="10.00">run</text>
</a>
</g>
</g>
<!-- Node1&#45;&gt;Node2 -->
<g id="edge1" class="edge">
<title>Node1&#45;&gt;Node2</title>
<path fill="none" stroke="midnightblue" d="M41.14,-152.5C49.04,-152.5 58.26,-152.5 66.67,-152.5"/>
<polygon fill="midnightblue" stroke="midnightblue" points="66.71,-156 76.71,-152.5 66.71,-149 66.71,-156"/>
</g>
<!-- Node3 -->
<g id="node3" class="node">
<title>Node3</title>
<g id="a_node3"><a xlink:href="classdemo_1_1core_1_1Logger.html#ac85d0c6081d9b29f67de2a4d835ec425" target="_top" xlink:title=" ">
<polygon fill="none" stroke="black" points="339.5,-54.5 339.5,-84.5 449.5,-84.5 449.5,-54.5 339.5,-54.5"/>
<text text-anchor="start" x="347.5" y="-72.5" font-family="Helvetica,sans-Serif" font-size="10.00">demo::core::Logger</text>
<text text-anchor="middle" x="394.5" y="-61.5" font-family="Helvetica,sans-Serif" font-size="10.00">::info</text>
</a>
</g>
</g>
<!-- Node2&#45;&gt;Node3 -->
<g id="edge2" class="edge">
<title>Node2&#45;&gt;Node3</title>
<path fill="none" stroke="midnightblue" d="M109.23,-143.9C119.16,-138.58 132.55,-131.94 145,-127.5 206.03,-105.74 278.43,-89.91 329.29,-80.34"/>
<polygon fill="midnightblue" stroke="midnightblue" points="329.97,-83.77 339.17,-78.51 328.7,-76.89 329.97,-83.77"/>
</g>
<!-- Node5 -->
<g id="node5" class="node">
<title>Node5</title>
<g id="a_node5"><a xlink:href="classdemo_1_1core_1_1Logger.html#af66c9418ab349f51eb7cc99af7698f71" target="_top" xlink:title="单例">
<polygon fill="none" stroke="black" points="339.5,-426.5 339.5,-456.5 449.5,-456.5 449.5,-426.5 339.5,-426.5"/>
<text text-anchor="start" x="347.5" y="-444.5" font-family="Helvetica,sans-Serif" font-size="10.00">demo::core::Logger</text>
<text text-anchor="middle" x="394.5" y="-433.5" font-family="Helvetica,sans-Serif" font-size="10.00">::instance</text>
</a>
</g>
</g>
<!-- Node2&#45;&gt;Node5 -->
<g id="edge4" class="edge">
<title>Node2&#45;&gt;Node5</title>
<path fill="none" stroke="midnightblue" d="M96.88,-162.22C103.24,-182.6 119.92,-230.7 145,-264.5 206.37,-347.2 229.45,-366.65 319,-417.5 322.49,-419.48 326.17,-421.33 329.94,-423.04"/>
<polygon fill="midnightblue" stroke="midnightblue" points="328.89,-426.39 339.46,-427.02 331.59,-419.93 328.89,-426.39"/>
</g>
<!-- Node6 -->
<g id="node6" class="node">
<title>Node6</title>
<g id="a_node6"><a xlink:href="namespacedemo_1_1io.html#a99c19100d7ce7084ecae57022cde1916" target="_top" xlink:title=" ">
<polygon fill="none" stroke="black" points="157.5,-186.5 157.5,-216.5 270.5,-216.5 270.5,-186.5 157.5,-186.5"/>
<text text-anchor="start" x="165.5" y="-204.5" font-family="Helvetica,sans-Serif" font-size="10.00">demo::io::make_file</text>
<text text-anchor="middle" x="214" y="-193.5" font-family="Helvetica,sans-Serif" font-size="10.00">_reader</text>
</a>
</g>
</g>
<!-- Node2&#45;&gt;Node6 -->
<g id="edge5" class="edge">
<title>Node2&#45;&gt;Node6</title>
<path fill="none" stroke="midnightblue" d="M109.02,-159.99C119.1,-164.91 132.72,-171.37 145,-176.5 150.08,-178.62 155.4,-180.75 160.75,-182.82"/>
<polygon fill="midnightblue" stroke="midnightblue" points="159.75,-186.18 170.34,-186.46 162.23,-179.64 159.75,-186.18"/>
</g>
<!-- Node7 -->
<g id="node7" class="node">
<title>Node7</title>
<g id="a_node7"><a xlink:href="classdemo_1_1algo_1_1Pipeline.html#ad73beb9d7ed9c842f3912e37cff7d437" target="_top" xlink:title=" ">
<polygon fill="none" stroke="black" points="156,-137.5 156,-167.5 272,-167.5 272,-137.5 156,-137.5"/>
<text text-anchor="start" x="164" y="-155.5" font-family="Helvetica,sans-Serif" font-size="10.00">demo::algo::Pipeline</text>
<text text-anchor="middle" x="214" y="-144.5" font-family="Helvetica,sans-Serif" font-size="10.00">::Pipeline</text>
</a>
</g>
</g>
<!-- Node2&#45;&gt;Node7 -->
<g id="edge6" class="edge">
<title>Node2&#45;&gt;Node7</title>
<path fill="none" stroke="midnightblue" d="M109.07,-152.5C118.68,-152.5 131.89,-152.5 145.67,-152.5"/>
<polygon fill="midnightblue" stroke="midnightblue" points="145.76,-156 155.76,-152.5 145.76,-149 145.76,-156"/>
</g>
<!-- Node8 -->
<g id="node8" class="node">
<title>Node8</title>
<g id="a_node8"><a xlink:href="classdemo_1_1algo_1_1Pipeline.html#ac153a7af3483760fd8d086848ebd83e8" target="_top" xlink:title="从 Reader 读取、经过各阶段，构建 AST 并求值">
<polygon fill="none" stroke="black" points="145,-236 145,-255 283,-255 283,-236 145,-236"/>
<text text-anchor="middle" x="214" y="-243" font-family="Helvetica,sans-Serif" font-size="10.00">demo::algo::Pipeline::run</text>
</a>
</g>
</g>
<!-- Node2&#45;&gt;Node8 -->
<g id="edge7" class="edge">
<title>Node2&#45;&gt;Node8</title>
<path fill="none" stroke="midnightblue" d="M98.12,-162.12C105.31,-177.78 121.66,-208.71 145,-225.5 148.43,-227.97 152.16,-230.13 156.05,-232.03"/>
<polygon fill="midnightblue" stroke="midnightblue" points="154.78,-235.29 165.35,-235.99 157.52,-228.85 154.78,-235.29"/>
</g>
<!-- Node16 -->
<g id="node16" class="node">
<title>Node16</title>
<g id="a_node16"><a xlink:href="classdemo_1_1util_1_1ScopeGuard.html#af11bce4490434c288e4ae4573bf852f3" target="_top" xlink:title=" ">
<polygon fill="none" stroke="black" points="148.5,-49.5 148.5,-79.5 279.5,-79.5 279.5,-49.5 148.5,-49.5"/>
<text text-anchor="start" x="156.5" y="-67.5" font-family="Helvetica,sans-Serif" font-size="10.00">demo::util::ScopeGuard</text>
<text text-anchor="middle" x="214" y="-56.5" font-family="Helvetica,sans-Serif" font-size="10.00">::ScopeGuard</text>
</a>
</g>
</g>
<!-- Node2&#45;&gt;Node16 -->
<g id="edge18" class="edge">
<title>Node2&#45;&gt;Node16</title>
<path fill="none" stroke="midnightblue" d="M100.55,-142.71C109.38,-130.13 126.18,-108.29 145,-94.5 150.19,-90.7 155.94,-87.23 161.83,-84.13"/>
<polygon fill="midnightblue" stroke="midnightblue" points="163.73,-87.1 171.15,-79.54 160.63,-80.82 163.73,-87.1"/>
</g>
<!-- Node17 -->
<g id="node17" class="node">
<title>Node17</title>
<g id="a_node17"><a xlink:href="classdemo_1_1core_1_1Logger.html#aa8258448374ac4bafc6ef757bdb64483" target="_top" xlink:title=" ">
<polygon fill="none" stroke="black" points="159,-0.5 159,-30.5 269,-30.5 269,-0.5 159,-0.5"/>
<text text-anchor="start" x="167" y="-18.5" font-family="Helvetica,sans-Serif" font-size="10.00">demo::core::Logger</text>
<text text-anchor="middle" x="214" y="-7.5" font-family="Helvetica,sans-Serif" font-size="10.00">::set_level</text>
</a>
</g>
</g>
<!-- Node2&#45;&gt;Node17 -->
<g id="edge19" class="edge">
<title>Node2&#45;&gt;Node17</title>
<path fill="none" stroke="midnightblue" d="M95.7,-142.82C100,-121.21 113.3,-68.62 145,-39.5 146.52,-38.1 148.13,-36.79 149.81,-35.54"/>
<polygon fill="midnightblue" stroke="midnightblue" points="152.09,-38.24 158.68,-29.95 148.36,-32.32 152.09,-38.24"/>
</g>
<!-- Node4 -->
<g id="node4" class="node">
<title>Node4</title>
<g id="a_node4"><a xlink:href="structdemo_1_1core_1_1Logger_1_1Impl.html#a2b0c247454fd6a6ba05da6372f1747ee" target="_top" xlink:title=" ">
<polygon fill="none" stroke="black" points="506,-215.5 506,-245.5 616,-245.5 616,-215.5 506,-215.5"/>
<text text-anchor="start" x="514" y="-233.5" font-family="Helvetica,sans-Serif" font-size="10.00">demo::core::Logger</text>
<text text-anchor="middle" x="561" y="-222.5" font-family="Helvetica,sans-Serif" font-size="10.00">::Impl::log</text>
</a>
</g>
</g>
<!-- Node3&#45;&gt;Node4 -->
<g id="edge3" class="edge">
<title>Node3&#45;&gt;Node4</title>
<path fill="none" stroke="midnightblue" d="M449.77,-82.91C456.97,-86.03 463.94,-89.85 470,-94.5 508.73,-124.25 536.13,-175.66 549.88,-206.03"/>
<polygon fill="midnightblue" stroke="midnightblue" points="546.8,-207.71 554.02,-215.46 553.21,-204.9 546.8,-207.71"/>
</g>
<!-- Node8&#45;&gt;Node3 -->
<g id="edge13" class="edge">
<title>Node8&#45;&gt;Node3</title>
<path fill="none" stroke="midnightblue" d="M268.19,-235.86C273.68,-233.19 278.77,-229.8 283,-225.5 325.31,-182.42 277.51,-138.37 319,-94.5 322.34,-90.97 326.19,-87.94 330.35,-85.33"/>
<polygon fill="midnightblue" stroke="midnightblue" points="332.09,-88.37 339.25,-80.57 328.78,-82.2 332.09,-88.37"/>
</g>
<!-- Node8&#45;&gt;Node5 -->
<g id="edge14" class="edge">
<title>Node8&#45;&gt;Node5</title>
<path fill="none" stroke="midnightblue" d="M221.91,-255.23C234.6,-273.26 262.23,-313.23 283,-348.5 300.55,-378.31 292.56,-395.2 319,-417.5 322.42,-420.39 326.2,-422.93 330.18,-425.17"/>
<polygon fill="midnightblue" stroke="midnightblue" points="328.65,-428.31 339.17,-429.59 331.74,-422.03 328.65,-428.31"/>
</g>
<!-- Node9 -->
<g id="node9" class="node">
<title>Node9</title>
<g id="a_node9"><a xlink:href="classdemo_1_1util_1_1Result.html#a850bbe580231c5a29f466dba6cea0109" target="_top" xlink:title=" ">
<polygon fill="none" stroke="black" points="343,-230.5 343,-260.5 446,-260.5 446,-230.5 343,-230.5"/>
<text text-anchor="start" x="351" y="-248.5" font-family="Helvetica,sans-Serif" font-size="10.00">demo::util::Result</text>
<text text-anchor="middle" x="394.5" y="-237.5" font-family="Helvetica,sans-Serif" font-size="10.00">::error</text>
</a>
</g>
</g>
<!-- Node8&#45;&gt;Node9 -->
<g id="edge8" class="edge">
<title>Node8&#45;&gt;Node9</title>
<path fill="none" stroke="midnightblue" d="M283.25,-245.5C299.48,-245.5 316.69,-245.5 332.56,-245.5"/>
<polygon fill="midnightblue" stroke="midnightblue" points="332.78,-249 342.78,-245.5 332.78,-242 332.78,-249"/>
</g>
<!-- Node10 -->
<g id="node10" class="node">
<title>Node10</title>
<g id="a_node10"><a xlink:href="classdemo_1_1core_1_1Logger.html#a5f90af942c703c02ac97e42e2f4db959" target="_top" xlink:title=" ">
<polygon fill="none" stroke="black" points="339.5,-377.5 339.5,-407.5 449.5,-407.5 449.5,-377.5 339.5,-377.5"/>
<text text-anchor="start" x="347.5" y="-395.5" font-family="Helvetica,sans-Serif" font-size="10.00">demo::core::Logger</text>
<text text-anchor="middle" x="394.5" y="-384.5" font-family="Helvetica,sans-Serif" font-size="10.00">::error</text>
</a>
</g>
</g>
<!-- Node8&#45;&gt;Node10 -->
<g id="edge9" class="edge">
<title>Node8&#45;&gt;Node10</title>
<path fill="none" stroke="midnightblue" d="M220.46,-255.07C234.08,-278.07 271.84,-336.9 319,-368.5 322.49,-370.84 326.23,-372.96 330.1,-374.89"/>
<polygon fill="midnightblue" stroke="midnightblue" points="328.77,-378.13 339.32,-379.04 331.64,-371.75 328.77,-378.13"/>
</g>
<!-- Node11 -->
<g id="node11" class="node">
<title>Node11</title>
<g id="a_node11"><a xlink:href="structdemo_1_1core_1_1Node.html#ab27d1b26675169a393394794686d5986" target="_top" xlink:title="计算值">
<polygon fill="none" stroke="black" points="329.5,-192 329.5,-211 459.5,-211 459.5,-192 329.5,-192"/>
<text text-anchor="middle" x="394.5" y="-199" font-family="Helvetica,sans-Serif" font-size="10.00">demo::core::Node::eval</text>
</a>
</g>
</g>
<!-- Node8&#45;&gt;Node11 -->
<g id="edge11" class="edge">
<title>Node8&#45;&gt;Node11</title>
<path fill="none" stroke="midnightblue" d="M253.73,-235.95C280.51,-229.35 316.35,-220.52 345.02,-213.45"/>
<polygon fill="midnightblue" stroke="midnightblue" points="345.97,-216.82 354.84,-211.03 344.3,-210.02 345.97,-216.82"/>
</g>
<!-- Node12 -->
<g id="node12" class="node">
<title>Node12</title>
<g id="a_node12"><a xlink:href="classdemo_1_1util_1_1Result.html#ab493a4bc44d0c7abbbae54d409a5980f" target="_top" xlink:title=" ">
<polygon fill="none" stroke="black" points="343,-142.5 343,-172.5 446,-172.5 446,-142.5 343,-142.5"/>
<text text-anchor="start" x="351" y="-160.5" font-family="Helvetica,sans-Serif" font-size="10.00">demo::util::Result</text>
<text text-anchor="middle" x="394.5" y="-149.5" font-family="Helvetica,sans-Serif" font-size="10.00">::has_value</text>
</a>
</g>
</g>
<!-- Node8&#45;&gt;Node12 -->
<g id="edge12" class="edge">
<title>Node8&#45;&gt;Node12</title>
<path fill="none" stroke="midnightblue" d="M261.26,-235.91C268.87,-233.22 276.41,-229.82 283,-225.5 303.85,-211.84 298.41,-196.55 319,-182.5 323.51,-179.42 328.43,-176.7 333.52,-174.29"/>
<polygon fill="midnightblue" stroke="midnightblue" points="335.01,-177.46 342.81,-170.29 332.24,-171.03 335.01,-177.46"/>
</g>
<!-- Node13 -->
<g id="node13" class="node">
<title>Node13</title>
<g id="a_node13"><a xlink:href="structdemo_1_1io_1_1Reader.html#a0fa99939659aa94b0c94a35d3f14a150" target="_top" xlink:title=" ">
<polygon fill="none" stroke="black" points="319,-104 319,-123 470,-123 470,-104 319,-104"/>
<text text-anchor="middle" x="394.5" y="-111" font-family="Helvetica,sans-Serif" font-size="10.00">demo::io::Reader::read_one</text>
</a>
</g>
</g>
<!-- Node8&#45;&gt;Node13 -->
<g id="edge15" class="edge">
<title>Node8&#45;&gt;Node13</title>
<path fill="none" stroke="midnightblue" d="M266.75,-235.89C272.69,-233.23 278.29,-229.83 283,-225.5 315.62,-195.49 285.84,-161.91 319,-132.5 320.74,-130.95 322.6,-129.53 324.54,-128.22"/>
<polygon fill="midnightblue" stroke="midnightblue" points="326.52,-131.12 333.52,-123.16 323.09,-125.02 326.52,-131.12"/>
</g>
<!-- Node14 -->
<g id="node14" class="node">
<title>Node14</title>
<g id="a_node14"><a xlink:href="classdemo_1_1algo_1_1Pipeline.html#a0065463cfab07534e5bf4e05cf818e35" target="_top" xlink:title=" ">
<polygon fill="none" stroke="black" points="336.5,-328.5 336.5,-358.5 452.5,-358.5 452.5,-328.5 336.5,-328.5"/>
<text text-anchor="start" x="344.5" y="-346.5" font-family="Helvetica,sans-Serif" font-size="10.00">demo::algo::Pipeline</text>
<text text-anchor="middle" x="394.5" y="-335.5" font-family="Helvetica,sans-Serif" font-size="10.00">::to_string</text>
</a>
</g>
</g>
<!-- Node8&#45;&gt;Node14 -->
<g id="edge16" class="edge">
<title>Node8&#45;&gt;Node14</title>
<path fill="none" stroke="midnightblue" d="M226.46,-255.23C244.9,-270.49 282.77,-300.19 319,-318.5 323.34,-320.69 327.91,-322.76 332.57,-324.69"/>
<polygon fill="midnightblue" stroke="midnightblue" points="331.62,-328.08 342.21,-328.47 334.17,-321.56 331.62,-328.08"/>
</g>
<!-- Node15 -->
<g id="node15" class="node">
<title>Node15</title>
<g id="a_node15"><a xlink:href="classdemo_1_1util_1_1Result.html#a2ab4ccd52b1dc6069d18ea993d8b586c" target="_top" xlink:title=" ">
<polygon fill="none" stroke="black" points="343,-279.5 343,-309.5 446,-309.5 446,-279.5 343,-279.5"/>
<text text-anchor="start" x="351" y="-297.5" font-family="Helvetica,sans-Serif" font-size="10.00">demo::util::Result</text>
<text text-anchor="middle" x="394.5" y="-286.5" font-family="Helvetica,sans-Serif" font-size="10.00">::value</text>
</a>
</g>
</g>
<!-- Node8&#45;&gt;Node15 -->
<g id="edge17" class="edge">
<title>Node8&#45;&gt;Node15</title>
<path fill="none" stroke="midnightblue" d="M249.84,-255.06C273.42,-261.54 305.21,-270.26 332.88,-277.86"/>
<polygon fill="midnightblue" stroke="midnightblue" points="332.3,-281.33 342.87,-280.6 334.15,-274.58 332.3,-281.33"/>
</g>
<!-- Node10&#45;&gt;Node4 -->
<g id="edge10" class="edge">
<title>Node10&#45;&gt;Node4</title>
<path fill="none" stroke="midnightblue" d="M449.79,-379.9C456.99,-376.87 463.95,-373.12 470,-368.5 509.21,-338.55 536.44,-286.3 550.04,-255.41"/>
<polygon fill="midnightblue" stroke="midnightblue" points="553.42,-256.38 554.12,-245.81 546.98,-253.64 553.42,-256.38"/>
</g>
</g>
</svg>
