<?xml version="1.0" encoding="UTF-8" standalone="no"?>
<!DOCTYPE svg PUBLIC "-//W3C//DTD SVG 1.1//EN"
 "http://www.w3.org/Graphics/SVG/1.1/DTD/svg11.dtd">
<!-- Generated by graphviz version 2.43.0 (0)
 -->
<!-- Title: src/main.cpp Pages: 1 -->
<svg width="878pt" height="252pt"
 viewBox="0.00 0.00 877.71 252.00" xmlns="http://www.w3.org/2000/svg" xmlns:xlink="http://www.w3.org/1999/xlink">
<g id="graph0" class="graph" transform="scale(1 1) rotate(0) translate(4 248)">
<title>src/main.cpp</title>
<!-- Node1 -->
<g id="node1" class="node">
<title>Node1</title>
<g id="a_node1"><a xlink:title=" ">
<polygon fill="#bfbfbf" stroke="black" points="575.71,-224.5 575.71,-243.5 654.71,-243.5 654.71,-224.5 575.71,-224.5"/>
<text text-anchor="middle" x="615.21" y="-231.5" font-family="Helvetica,sans-Serif" font-size="10.00">src/main.cpp</text>
</a>
</g>
</g>
<!-- Node2 -->
<g id="node2" class="node">
<title>Node2</title>
<g id="a_node2"><a xlink:href="pipeline_8hpp.html" target="_top" xlink:title="可组合管线">
<polygon fill="none" stroke="black" points="260.71,-168.5 260.71,-187.5 361.71,-187.5 361.71,-168.5 260.71,-168.5"/>
<text text-anchor="middle" x="311.21" y="-175.5" font-family="Helvetica,sans-Serif" font-size="10.00">algo/pipeline.hpp</text>
</a>
</g>
</g>
<!-- Node1&#45;&gt;Node2 -->
<g id="edge1" class="edge">
<title>Node1&#45;&gt;Node2</title>
<path fill="none" stroke="midnightblue" d="M575.47,-225.94C522.9,-216.6 429.87,-200.08 369.39,-189.33"/>
<polygon fill="midnightblue" stroke="midnightblue" points="369.69,-185.83 359.23,-187.53 368.47,-192.72 369.69,-185.83"/>
</g>
<!-- Node9 -->
<g id="node9" class="node">
<title>Node9</title>
<g id="a_node9"><a xlink:href="logger_8hpp.html" target="_top" xlink:title="线程安全 Logger（PImpl）">
<polygon fill="none" stroke="black" points="452.21,-112.5 452.21,-131.5 544.21,-131.5 544.21,-112.5 452.21,-112.5"/>
<text text-anchor="middle" x="498.21" y="-119.5" font-family="Helvetica,sans-Serif" font-size="10.00">core/logger.hpp</text>
</a>
</g>
</g>
<!-- Node1&#45;&gt;Node9 -->
<g id="edge26" class="edge">
<title>Node1&#45;&gt;Node9</title>
<path fill="none" stroke="midnightblue" d="M606.03,-224.37C586.38,-205.89 540,-162.29 514.96,-138.74"/>
<polygon fill="midnightblue" stroke="midnightblue" points="517.03,-135.89 507.35,-131.59 512.24,-140.99 517.03,-135.89"/>
</g>
<!-- Node14 -->
<g id="node14" class="node">
<title>Node14</title>
<g id="a_node14"><a xlink:href="reader_8hpp.html" target="_top" xlink:title="IO Reader 接口">
<polygon fill="none" stroke="black" points="562.21,-112.5 562.21,-131.5 642.21,-131.5 642.21,-112.5 562.21,-112.5"/>
<text text-anchor="middle" x="602.21" y="-119.5" font-family="Helvetica,sans-Serif" font-size="10.00">io/reader.hpp</text>
</a>
</g>
</g>
<!-- Node1&#45;&gt;Node14 -->
<g id="edge23" class="edge">
<title>Node1&#45;&gt;Node14</title>
<path fill="none" stroke="midnightblue" d="M608.85,-224.23C602.95,-215.53 594.6,-201.57 591.21,-188 587.31,-172.39 591.01,-154.31 595.14,-141.19"/>
<polygon fill="midnightblue" stroke="midnightblue" points="598.54,-142.1 598.56,-131.5 591.93,-139.77 598.54,-142.1"/>
</g>
<!-- Node18 -->
<g id="node17" class="node">
<title>Node18</title>
<g id="a_node17"><a xlink:href="scope__guard_8hpp.html" target="_top" xlink:title="作用域守卫（RAII）">
<polygon fill="none" stroke="black" points="600.21,-168.5 600.21,-187.5 718.21,-187.5 718.21,-168.5 600.21,-168.5"/>
<text text-anchor="middle" x="659.21" y="-175.5" font-family="Helvetica,sans-Serif" font-size="10.00">util/scope_guard.hpp</text>
</a>
</g>
</g>
<!-- Node1&#45;&gt;Node18 -->
<g id="edge24" class="edge">
<title>Node1&#45;&gt;Node18</title>
<path fill="none" stroke="midnightblue" d="M622.48,-224.08C628.76,-216.38 638,-205.03 645.64,-195.65"/>
<polygon fill="midnightblue" stroke="midnightblue" points="648.48,-197.71 652.08,-187.75 643.05,-193.29 648.48,-197.71"/>
</g>
<!-- Node19 -->
<g id="node18" class="node">
<title>Node19</title>
<g id="a_node18"><a xlink:title=" ">
<polygon fill="none" stroke="#bfbfbf" points="736.21,-168.5 736.21,-187.5 796.21,-187.5 796.21,-168.5 736.21,-168.5"/>
<text text-anchor="middle" x="766.21" y="-175.5" font-family="Helvetica,sans-Serif" font-size="10.00">iostream</text>
</a>
</g>
</g>
<!-- Node1&#45;&gt;Node19 -->
<g id="edge27" class="edge">
<title>Node1&#45;&gt;Node19</title>
<path fill="none" stroke="midnightblue" d="M639.14,-224.44C664.43,-215.4 704.51,-201.06 732.89,-190.92"/>
<polygon fill="midnightblue" stroke="midnightblue" points="734.16,-194.18 742.4,-187.52 731.8,-187.59 734.16,-194.18"/>
</g>
<!-- Node20 -->
<g id="node19" class="node">
<title>Node20</title>
<g id="a_node19"><a xlink:title=" ">
<polygon fill="none" stroke="#bfbfbf" points="814.71,-168.5 814.71,-187.5 869.71,-187.5 869.71,-168.5 814.71,-168.5"/>
<text text-anchor="middle" x="842.21" y="-175.5" font-family="Helvetica,sans-Serif" font-size="10.00">fstream</text>
</a>
</g>
</g>
<!-- Node1&#45;&gt;Node20 -->
<g id="edge28" class="edge">
<title>Node1&#45;&gt;Node20</title>
<path fill="none" stroke="midnightblue" d="M651.65,-224.44C687.89,-215.91 745.35,-202.34 804.45,-188.17"/>
<polygon fill="midnightblue" stroke="midnightblue" points="805.43,-191.54 814.34,-185.8 803.8,-184.73 805.43,-191.54"/>
</g>
<!-- Node3 -->
<g id="node3" class="node">
<title>Node3</title>
<g id="a_node3"><a xlink:title=" ">
<polygon fill="none" stroke="#bfbfbf" points="252.21,-112.5 252.21,-131.5 312.21,-131.5 312.21,-112.5 252.21,-112.5"/>
<text text-anchor="middle" x="282.21" y="-119.5" font-family="Helvetica,sans-Serif" font-size="10.00">concepts</text>
</a>
</g>
</g>
<!-- Node2&#45;&gt;Node3 -->
<g id="edge2" class="edge">
<title>Node2&#45;&gt;Node3</title>
<path fill="none" stroke="midnightblue" d="M306.42,-168.08C302.45,-160.69 296.69,-149.95 291.78,-140.81"/>
<polygon fill="midnightblue" stroke="midnightblue" points="294.73,-138.91 286.91,-131.75 288.56,-142.22 294.73,-138.91"/>
</g>
<!-- Node4 -->
<g id="node4" class="node">
<title>Node4</title>
<g id="a_node4"><a xlink:title=" ">
<polygon fill="none" stroke="#bfbfbf" points="368.71,-112.5 368.71,-131.5 433.71,-131.5 433.71,-112.5 368.71,-112.5"/>
<text text-anchor="middle" x="401.21" y="-119.5" font-family="Helvetica,sans-Serif" font-size="10.00">functional</text>
</a>
</g>
</g>
<!-- Node2&#45;&gt;Node4 -->
<g id="edge3" class="edge">
<title>Node2&#45;&gt;Node4</title>
<path fill="none" stroke="midnightblue" d="M325.67,-168.32C339.71,-159.9 361.26,-146.97 377.75,-137.07"/>
<polygon fill="midnightblue" stroke="midnightblue" points="380.01,-139.8 386.79,-131.65 376.41,-133.8 380.01,-139.8"/>
</g>
<!-- Node5 -->
<g id="node5" class="node">
<title>Node5</title>
<g id="a_node5"><a xlink:title=" ">
<polygon fill="none" stroke="#bfbfbf" points="386.21,-56.5 386.21,-75.5 444.21,-75.5 444.21,-56.5 386.21,-56.5"/>
<text text-anchor="middle" x="415.21" y="-63.5" font-family="Helvetica,sans-Serif" font-size="10.00">memory</text>
</a>
</g>
</g>
<!-- Node2&#45;&gt;Node5 -->
<g id="edge4" class="edge">
<title>Node2&#45;&gt;Node5</title>
<path fill="none" stroke="midnightblue" d="M316.49,-168.46C324.73,-155.5 341.53,-130.42 359.21,-112 369.84,-100.92 383.2,-90.1 394.2,-81.84"/>
<polygon fill="midnightblue" stroke="midnightblue" points="396.43,-84.55 402.42,-75.81 392.29,-78.9 396.43,-84.55"/>
</g>
<!-- Node6 -->
<g id="node6" class="node">
<title>Node6</title>
<g id="a_node6"><a xlink:title=" ">
<polygon fill="none" stroke="#bfbfbf" points="14.21,-112.5 14.21,-131.5 70.21,-131.5 70.21,-112.5 14.21,-112.5"/>
<text text-anchor="middle" x="42.21" y="-119.5" font-family="Helvetica,sans-Serif" font-size="10.00">sstream</text>
</a>
</g>
</g>
<!-- Node2&#45;&gt;Node6 -->
<g id="edge5" class="edge">
<title>Node2&#45;&gt;Node6</title>
<path fill="none" stroke="midnightblue" d="M263.53,-168.43C218.74,-160.23 149.6,-147.18 80.63,-132.23"/>
<polygon fill="midnightblue" stroke="midnightblue" points="80.98,-128.73 70.46,-130.02 79.49,-135.57 80.98,-128.73"/>
</g>
<!-- Node7 -->
<g id="node7" class="node">
<title>Node7</title>
<g id="a_node7"><a xlink:title=" ">
<polygon fill="none" stroke="#bfbfbf" points="88.71,-112.5 88.71,-131.5 129.71,-131.5 129.71,-112.5 88.71,-112.5"/>
<text text-anchor="middle" x="109.21" y="-119.5" font-family="Helvetica,sans-Serif" font-size="10.00">tuple</text>
</a>
</g>
</g>
<!-- Node2&#45;&gt;Node7 -->
<g id="edge6" class="edge">
<title>Node2&#45;&gt;Node7</title>
<path fill="none" stroke="midnightblue" d="M277.17,-168.48C244.38,-160.18 193.13,-146.99 139.52,-132.01"/>
<polygon fill="midnightblue" stroke="midnightblue" points="140.41,-128.63 129.84,-129.29 138.52,-135.37 140.41,-128.63"/>
</g>
<!-- Node8 -->
<g id="node8" class="node">
<title>Node8</title>
<g id="a_node8"><a xlink:title=" ">
<polygon fill="none" stroke="#bfbfbf" points="12.71,-56.5 12.71,-75.5 59.71,-75.5 59.71,-56.5 12.71,-56.5"/>
<text text-anchor="middle" x="36.21" y="-63.5" font-family="Helvetica,sans-Serif" font-size="10.00">vector</text>
</a>
</g>
</g>
<!-- Node2&#45;&gt;Node8 -->
<g id="edge7" class="edge">
<title>Node2&#45;&gt;Node8</title>
<path fill="none" stroke="midnightblue" d="M260.51,-177.2C182.24,-176.31 37.59,-169.49 5.21,-132 -7.22,-117.6 6.07,-97.36 18.91,-83.31"/>
<polygon fill="midnightblue" stroke="midnightblue" points="21.72,-85.43 26.21,-75.84 16.72,-80.54 21.72,-85.43"/>
</g>
<!-- Node2&#45;&gt;Node9 -->
<g id="edge8" class="edge">
<title>Node2&#45;&gt;Node9</title>
<path fill="none" stroke="midnightblue" d="M340.84,-168.44C372.71,-159.24 423.54,-144.56 458.78,-134.39"/>
<polygon fill="midnightblue" stroke="midnightblue" points="460.08,-137.65 468.72,-131.52 458.14,-130.93 460.08,-137.65"/>
</g>
<!-- Node11 -->
<g id="node11" class="node">
<title>Node11</title>
<g id="a_node11"><a xlink:href="node_8hpp.html" target="_top" xlink:title="AST 节点层次">
<polygon fill="none" stroke="black" points="148.21,-112.5 148.21,-131.5 234.21,-131.5 234.21,-112.5 148.21,-112.5"/>
<text text-anchor="middle" x="191.21" y="-119.5" font-family="Helvetica,sans-Serif" font-size="10.00">core/node.hpp</text>
</a>
</g>
</g>
<!-- Node2&#45;&gt;Node11 -->
<g id="edge11" class="edge">
<title>Node2&#45;&gt;Node11</title>
<path fill="none" stroke="midnightblue" d="M292.2,-168.44C272.62,-159.64 241.9,-145.81 219.48,-135.72"/>
<polygon fill="midnightblue" stroke="midnightblue" points="220.69,-132.43 210.14,-131.52 217.82,-138.81 220.69,-132.43"/>
</g>
<!-- Node2&#45;&gt;Node14 -->
<g id="edge17" class="edge">
<title>Node2&#45;&gt;Node14</title>
<path fill="none" stroke="midnightblue" d="M357.32,-168.44C410.32,-158.61 497.01,-142.52 551.77,-132.36"/>
<polygon fill="midnightblue" stroke="midnightblue" points="552.75,-135.74 561.94,-130.47 551.47,-128.86 552.75,-135.74"/>
</g>
<!-- Node9&#45;&gt;Node5 -->
<g id="edge9" class="edge">
<title>Node9&#45;&gt;Node5</title>
<path fill="none" stroke="midnightblue" d="M484.88,-112.32C472.05,-103.98 452.43,-91.21 437.27,-81.35"/>
<polygon fill="midnightblue" stroke="midnightblue" points="438.8,-78.17 428.51,-75.65 434.99,-84.04 438.8,-78.17"/>
</g>
<!-- Node10 -->
<g id="node10" class="node">
<title>Node10</title>
<g id="a_node10"><a xlink:title=" ">
<polygon fill="none" stroke="#bfbfbf" points="491.21,-0.5 491.21,-19.5 535.21,-19.5 535.21,-0.5 491.21,-0.5"/>
<text text-anchor="middle" x="513.21" y="-7.5" font-family="Helvetica,sans-Serif" font-size="10.00">string</text>
</a>
</g>
</g>
<!-- Node9&#45;&gt;Node10 -->
<g id="edge10" class="edge">
<title>Node9&#45;&gt;Node10</title>
<path fill="none" stroke="midnightblue" d="M499.39,-112.37C501.81,-94.62 507.39,-53.67 510.68,-29.6"/>
<polygon fill="midnightblue" stroke="midnightblue" points="514.16,-29.97 512.04,-19.59 507.22,-29.03 514.16,-29.97"/>
</g>
<!-- Node11&#45;&gt;Node5 -->
<g id="edge12" class="edge">
<title>Node11&#45;&gt;Node5</title>
<path fill="none" stroke="midnightblue" d="M226.71,-112.44C267.39,-102.64 333.88,-86.61 376.05,-76.44"/>
<polygon fill="midnightblue" stroke="midnightblue" points="377.05,-79.8 385.95,-74.05 375.41,-72.99 377.05,-79.8"/>
</g>
<!-- Node11&#45;&gt;Node8 -->
<g id="edge16" class="edge">
<title>Node11&#45;&gt;Node8</title>
<path fill="none" stroke="midnightblue" d="M166.65,-112.44C140.46,-103.32 98.82,-88.81 69.65,-78.65"/>
<polygon fill="midnightblue" stroke="midnightblue" points="70.49,-75.24 59.89,-75.25 68.19,-81.85 70.49,-75.24"/>
</g>
<!-- Node11&#45;&gt;Node10 -->
<g id="edge15" class="edge">
<title>Node11&#45;&gt;Node10</title>
<path fill="none" stroke="midnightblue" d="M186.4,-112.21C179.61,-98.44 169.45,-71.76 183.21,-56 221.63,-11.99 404.99,-9.42 480.55,-10.29"/>
<polygon fill="midnightblue" stroke="midnightblue" points="480.84,-13.79 490.89,-10.44 480.94,-6.8 480.84,-13.79"/>
</g>
<!-- Node12 -->
<g id="node12" class="node">
<title>Node12</title>
<g id="a_node12"><a xlink:title=" ">
<polygon fill="none" stroke="#bfbfbf" points="192.71,-56.5 192.71,-75.5 243.71,-75.5 243.71,-56.5 192.71,-56.5"/>
<text text-anchor="middle" x="218.21" y="-63.5" font-family="Helvetica,sans-Serif" font-size="10.00">variant</text>
</a>
</g>
</g>
<!-- Node11&#45;&gt;Node12 -->
<g id="edge13" class="edge">
<title>Node11&#45;&gt;Node12</title>
<path fill="none" stroke="midnightblue" d="M195.67,-112.08C199.37,-104.69 204.74,-93.95 209.31,-84.81"/>
<polygon fill="midnightblue" stroke="midnightblue" points="212.49,-86.26 213.84,-75.75 206.23,-83.13 212.49,-86.26"/>
</g>
<!-- Node13 -->
<g id="node13" class="node">
<title>Node13</title>
<g id="a_node13"><a xlink:title=" ">
<polygon fill="none" stroke="#bfbfbf" points="261.71,-56.5 261.71,-75.5 318.71,-75.5 318.71,-56.5 261.71,-56.5"/>
<text text-anchor="middle" x="290.21" y="-63.5" font-family="Helvetica,sans-Serif" font-size="10.00">ostream</text>
</a>
</g>
</g>
<!-- Node11&#45;&gt;Node13 -->
<g id="edge14" class="edge">
<title>Node11&#45;&gt;Node13</title>
<path fill="none" stroke="midnightblue" d="M207.12,-112.32C222.85,-103.74 247.15,-90.49 265.42,-80.52"/>
<polygon fill="midnightblue" stroke="midnightblue" points="267.24,-83.52 274.35,-75.65 263.89,-77.37 267.24,-83.52"/>
</g>
<!-- Node14&#45;&gt;Node5 -->
<g id="edge19" class="edge">
<title>Node14&#45;&gt;Node5</title>
<path fill="none" stroke="midnightblue" d="M572.58,-112.44C540.62,-103.21 489.58,-88.48 454.34,-78.3"/>
<polygon fill="midnightblue" stroke="midnightblue" points="454.97,-74.84 444.4,-75.43 453.03,-81.56 454.97,-74.84"/>
</g>
<!-- Node14&#45;&gt;Node10 -->
<g id="edge18" class="edge">
<title>Node14&#45;&gt;Node10</title>
<path fill="none" stroke="midnightblue" d="M590.3,-112.28C579.29,-103.82 562.91,-90.23 551.21,-76 539.17,-61.36 528.57,-42.45 521.65,-28.8"/>
<polygon fill="midnightblue" stroke="midnightblue" points="524.66,-26.98 517.11,-19.55 518.38,-30.07 524.66,-26.98"/>
</g>
<!-- Node15 -->
<g id="node15" class="node">
<title>Node15</title>
<g id="a_node15"><a xlink:href="result_8hpp.html" target="_top" xlink:title="轻量 Result&lt;T&gt;">
<polygon fill="none" stroke="red" points="560.21,-56.5 560.21,-75.5 644.21,-75.5 644.21,-56.5 560.21,-56.5"/>
<text text-anchor="middle" x="602.21" y="-63.5" font-family="Helvetica,sans-Serif" font-size="10.00">util/result.hpp</text>
</a>
</g>
</g>
<!-- Node14&#45;&gt;Node15 -->
<g id="edge20" class="edge">
<title>Node14&#45;&gt;Node15</title>
<path fill="none" stroke="midnightblue" d="M602.21,-112.08C602.21,-105.01 602.21,-94.86 602.21,-85.99"/>
<polygon fill="midnightblue" stroke="midnightblue" points="605.71,-85.75 602.21,-75.75 598.71,-85.75 605.71,-85.75"/>
</g>
<!-- Node15&#45;&gt;Node10 -->
<g id="edge21" class="edge">
<title>Node15&#45;&gt;Node10</title>
<path fill="none" stroke="midnightblue" d="M587.91,-56.32C574.03,-47.9 552.72,-34.97 536.41,-25.07"/>
<polygon fill="midnightblue" stroke="midnightblue" points="537.84,-21.85 527.48,-19.65 534.21,-27.83 537.84,-21.85"/>
</g>
<!-- Node17 -->
<g id="node16" class="node">
<title>Node17</title>
<g id="a_node16"><a xlink:title=" ">
<polygon fill="none" stroke="#bfbfbf" points="614.71,-0.5 614.71,-19.5 659.71,-19.5 659.71,-0.5 614.71,-0.5"/>
<text text-anchor="middle" x="637.21" y="-7.5" font-family="Helvetica,sans-Serif" font-size="10.00">utility</text>
</a>
</g>
</g>
<!-- Node15&#45;&gt;Node17 -->
<g id="edge22" class="edge">
<title>Node15&#45;&gt;Node17</title>
<path fill="none" stroke="midnightblue" d="M607.99,-56.08C612.88,-48.53 620.04,-37.49 626.04,-28.23"/>
<polygon fill="midnightblue" stroke="midnightblue" points="629.04,-30.05 631.54,-19.75 623.16,-26.24 629.04,-30.05"/>
</g>
<!-- Node18&#45;&gt;Node17 -->
<g id="edge25" class="edge">
<title>Node18&#45;&gt;Node17</title>
<path fill="none" stroke="midnightblue" d="M659.64,-168.39C660.44,-148.41 661.43,-97.47 653.21,-56 651.42,-46.95 648.16,-37.27 645.05,-29.21"/>
<polygon fill="midnightblue" stroke="midnightblue" points="648.21,-27.68 641.19,-19.75 641.73,-30.33 648.21,-27.68"/>
</g>
</g>
</svg>
