<?xml version="1.0" encoding="UTF-8" standalone="no"?>
<!DOCTYPE svg PUBLIC "-//W3C//DTD SVG 1.1//EN"
 "http://www.w3.org/Graphics/SVG/1.1/DTD/svg11.dtd">
<!-- Generated by graphviz version 2.43.0 (0)
 -->
<!-- Title: include/algo/pipeline.hpp Pages: 1 -->
<svg width="674pt" height="196pt"
 viewBox="0.00 0.00 673.50 196.00" xmlns="http://www.w3.org/2000/svg" xmlns:xlink="http://www.w3.org/1999/xlink">
<g id="graph0" class="graph" transform="scale(1 1) rotate(0) translate(4 192)">
<title>include/algo/pipeline.hpp</title>
<!-- Node1 -->
<g id="node1" class="node">
<title>Node1</title>
<g id="a_node1"><a xlink:title="可组合管线">
<polygon fill="#bfbfbf" stroke="black" points="274.5,-168.5 274.5,-187.5 413.5,-187.5 413.5,-168.5 274.5,-168.5"/>
<text text-anchor="middle" x="344" y="-175.5" font-family="Helvetica,sans-Serif" font-size="10.00">include/algo/pipeline.hpp</text>
</a>
</g>
</g>
<!-- Node2 -->
<g id="node2" class="node">
<title>Node2</title>
<g id="a_node2"><a xlink:title=" ">
<polygon fill="none" stroke="#bfbfbf" points="0,-112.5 0,-131.5 60,-131.5 60,-112.5 0,-112.5"/>
<text text-anchor="middle" x="30" y="-119.5" font-family="Helvetica,sans-Serif" font-size="10.00">concepts</text>
</a>
</g>
</g>
<!-- Node1&#45;&gt;Node2 -->
<g id="edge1" class="edge">
<title>Node1&#45;&gt;Node2</title>
<path fill="none" stroke="midnightblue" d="M285.06,-168.48C231.53,-160.49 150.18,-147.71 70.42,-132.18"/>
<polygon fill="midnightblue" stroke="midnightblue" points="70.68,-128.66 60.19,-130.17 69.33,-135.53 70.68,-128.66"/>
</g>
<!-- Node3 -->
<g id="node3" class="node">
<title>Node3</title>
<g id="a_node3"><a xlink:title=" ">
<polygon fill="none" stroke="#bfbfbf" points="78.5,-112.5 78.5,-131.5 143.5,-131.5 143.5,-112.5 78.5,-112.5"/>
<text text-anchor="middle" x="111" y="-119.5" font-family="Helvetica,sans-Serif" font-size="10.00">functional</text>
</a>
</g>
</g>
<!-- Node1&#45;&gt;Node3 -->
<g id="edge2" class="edge">
<title>Node1&#45;&gt;Node3</title>
<path fill="none" stroke="midnightblue" d="M307.08,-168.44C265.3,-158.76 197.35,-143.01 153.42,-132.83"/>
<polygon fill="midnightblue" stroke="midnightblue" points="154.14,-129.41 143.61,-130.56 152.56,-136.23 154.14,-129.41"/>
</g>
<!-- Node4 -->
<g id="node4" class="node">
<title>Node4</title>
<g id="a_node4"><a xlink:title=" ">
<polygon fill="none" stroke="#bfbfbf" points="249,-56.5 249,-75.5 307,-75.5 307,-56.5 249,-56.5"/>
<text text-anchor="middle" x="278" y="-63.5" font-family="Helvetica,sans-Serif" font-size="10.00">memory</text>
</a>
</g>
</g>
<!-- Node1&#45;&gt;Node4 -->
<g id="edge3" class="edge">
<title>Node1&#45;&gt;Node4</title>
<path fill="none" stroke="midnightblue" d="M328.3,-168.47C315.58,-160.7 298.3,-148 289,-132 280.82,-117.93 278.34,-99.44 277.74,-85.78"/>
<polygon fill="midnightblue" stroke="midnightblue" points="281.24,-85.59 277.6,-75.64 274.24,-85.69 281.24,-85.59"/>
</g>
<!-- Node5 -->
<g id="node5" class="node">
<title>Node5</title>
<g id="a_node5"><a xlink:title=" ">
<polygon fill="none" stroke="#bfbfbf" points="550,-112.5 550,-131.5 606,-131.5 606,-112.5 550,-112.5"/>
<text text-anchor="middle" x="578" y="-119.5" font-family="Helvetica,sans-Serif" font-size="10.00">sstream</text>
</a>
</g>
</g>
<!-- Node1&#45;&gt;Node5 -->
<g id="edge4" class="edge">
<title>Node1&#45;&gt;Node5</title>
<path fill="none" stroke="midnightblue" d="M381.08,-168.44C424.51,-158.42 496.07,-141.91 539.92,-131.79"/>
<polygon fill="midnightblue" stroke="midnightblue" points="540.95,-135.14 549.91,-129.48 539.38,-128.32 540.95,-135.14"/>
</g>
<!-- Node6 -->
<g id="node6" class="node">
<title>Node6</title>
<g id="a_node6"><a xlink:title=" ">
<polygon fill="none" stroke="#bfbfbf" points="624.5,-112.5 624.5,-131.5 665.5,-131.5 665.5,-112.5 624.5,-112.5"/>
<text text-anchor="middle" x="645" y="-119.5" font-family="Helvetica,sans-Serif" font-size="10.00">tuple</text>
</a>
</g>
</g>
<!-- Node1&#45;&gt;Node6 -->
<g id="edge5" class="edge">
<title>Node1&#45;&gt;Node6</title>
<path fill="none" stroke="midnightblue" d="M409.62,-168.48C462.42,-161.09 538.65,-149.19 614.26,-131.91"/>
<polygon fill="midnightblue" stroke="midnightblue" points="615.49,-135.21 624.44,-129.54 613.9,-128.39 615.49,-135.21"/>
</g>
<!-- Node7 -->
<g id="node7" class="node">
<title>Node7</title>
<g id="a_node7"><a xlink:title=" ">
<polygon fill="none" stroke="#bfbfbf" points="545.5,-56.5 545.5,-75.5 592.5,-75.5 592.5,-56.5 545.5,-56.5"/>
<text text-anchor="middle" x="569" y="-63.5" font-family="Helvetica,sans-Serif" font-size="10.00">vector</text>
</a>
</g>
</g>
<!-- Node1&#45;&gt;Node7 -->
<g id="edge6" class="edge">
<title>Node1&#45;&gt;Node7</title>
<path fill="none" stroke="midnightblue" d="M399.32,-168.42C431.2,-161.8 471.13,-150.53 503,-132 524.62,-119.43 544.32,-98.15 556.46,-83.38"/>
<polygon fill="midnightblue" stroke="midnightblue" points="559.21,-85.55 562.69,-75.55 553.73,-81.19 559.21,-85.55"/>
</g>
<!-- Node8 -->
<g id="node8" class="node">
<title>Node8</title>
<g id="a_node8"><a xlink:href="logger_8hpp.html" target="_top" xlink:title="线程安全 Logger（PImpl）">
<polygon fill="none" stroke="black" points="298,-112.5 298,-131.5 390,-131.5 390,-112.5 298,-112.5"/>
<text text-anchor="middle" x="344" y="-119.5" font-family="Helvetica,sans-Serif" font-size="10.00">core/logger.hpp</text>
</a>
</g>
</g>
<!-- Node1&#45;&gt;Node8 -->
<g id="edge7" class="edge">
<title>Node1&#45;&gt;Node8</title>
<path fill="none" stroke="midnightblue" d="M344,-168.08C344,-161.01 344,-150.86 344,-141.99"/>
<polygon fill="midnightblue" stroke="midnightblue" points="347.5,-141.75 344,-131.75 340.5,-141.75 347.5,-141.75"/>
</g>
<!-- Node10 -->
<g id="node10" class="node">
<title>Node10</title>
<g id="a_node10"><a xlink:href="node_8hpp.html" target="_top" xlink:title="AST 节点层次">
<polygon fill="none" stroke="black" points="408,-112.5 408,-131.5 494,-131.5 494,-112.5 408,-112.5"/>
<text text-anchor="middle" x="451" y="-119.5" font-family="Helvetica,sans-Serif" font-size="10.00">core/node.hpp</text>
</a>
</g>
</g>
<!-- Node1&#45;&gt;Node10 -->
<g id="edge10" class="edge">
<title>Node1&#45;&gt;Node10</title>
<path fill="none" stroke="midnightblue" d="M361.19,-168.32C378.35,-159.66 404.95,-146.24 424.75,-136.25"/>
<polygon fill="midnightblue" stroke="midnightblue" points="426.5,-139.28 433.85,-131.65 423.35,-133.04 426.5,-139.28"/>
</g>
<!-- Node13 -->
<g id="node13" class="node">
<title>Node13</title>
<g id="a_node13"><a xlink:href="reader_8hpp.html" target="_top" xlink:title="IO Reader 接口">
<polygon fill="none" stroke="black" points="162,-112.5 162,-131.5 242,-131.5 242,-112.5 162,-112.5"/>
<text text-anchor="middle" x="202" y="-119.5" font-family="Helvetica,sans-Serif" font-size="10.00">io/reader.hpp</text>
</a>
</g>
</g>
<!-- Node1&#45;&gt;Node13 -->
<g id="edge16" class="edge">
<title>Node1&#45;&gt;Node13</title>
<path fill="none" stroke="midnightblue" d="M321.5,-168.44C297.92,-159.48 260.68,-145.31 234.04,-135.18"/>
<polygon fill="midnightblue" stroke="midnightblue" points="234.99,-131.8 224.4,-131.52 232.5,-138.34 234.99,-131.8"/>
</g>
<!-- Node8&#45;&gt;Node4 -->
<g id="edge8" class="edge">
<title>Node8&#45;&gt;Node4</title>
<path fill="none" stroke="midnightblue" d="M333.4,-112.32C323.54,-104.26 308.65,-92.08 296.78,-82.37"/>
<polygon fill="midnightblue" stroke="midnightblue" points="298.75,-79.46 288.8,-75.83 294.32,-84.88 298.75,-79.46"/>
</g>
<!-- Node9 -->
<g id="node9" class="node">
<title>Node9</title>
<g id="a_node9"><a xlink:title=" ">
<polygon fill="none" stroke="#bfbfbf" points="271,-0.5 271,-19.5 315,-19.5 315,-0.5 271,-0.5"/>
<text text-anchor="middle" x="293" y="-7.5" font-family="Helvetica,sans-Serif" font-size="10.00">string</text>
</a>
</g>
</g>
<!-- Node8&#45;&gt;Node9 -->
<g id="edge9" class="edge">
<title>Node8&#45;&gt;Node9</title>
<path fill="none" stroke="midnightblue" d="M340.38,-112.09C335.21,-99.49 325.31,-75.79 316,-56 311.7,-46.86 306.61,-36.83 302.32,-28.57"/>
<polygon fill="midnightblue" stroke="midnightblue" points="305.33,-26.77 297.58,-19.54 299.13,-30.02 305.33,-26.77"/>
</g>
<!-- Node10&#45;&gt;Node4 -->
<g id="edge11" class="edge">
<title>Node10&#45;&gt;Node4</title>
<path fill="none" stroke="midnightblue" d="M423.59,-112.44C394.23,-103.28 347.48,-88.69 314.9,-78.52"/>
<polygon fill="midnightblue" stroke="midnightblue" points="315.87,-75.16 305.28,-75.52 313.79,-81.84 315.87,-75.16"/>
</g>
<!-- Node10&#45;&gt;Node7 -->
<g id="edge15" class="edge">
<title>Node10&#45;&gt;Node7</title>
<path fill="none" stroke="midnightblue" d="M469.7,-112.44C488.94,-103.64 519.15,-89.81 541.2,-79.72"/>
<polygon fill="midnightblue" stroke="midnightblue" points="542.75,-82.86 550.39,-75.52 539.84,-76.5 542.75,-82.86"/>
</g>
<!-- Node10&#45;&gt;Node9 -->
<g id="edge14" class="edge">
<title>Node10&#45;&gt;Node9</title>
<path fill="none" stroke="midnightblue" d="M438.6,-112.37C411.6,-93.57 347.25,-48.77 313.88,-25.53"/>
<polygon fill="midnightblue" stroke="midnightblue" points="315.55,-22.43 305.34,-19.59 311.55,-28.18 315.55,-22.43"/>
</g>
<!-- Node11 -->
<g id="node11" class="node">
<title>Node11</title>
<g id="a_node11"><a xlink:title=" ">
<polygon fill="none" stroke="#bfbfbf" points="476.5,-56.5 476.5,-75.5 527.5,-75.5 527.5,-56.5 476.5,-56.5"/>
<text text-anchor="middle" x="502" y="-63.5" font-family="Helvetica,sans-Serif" font-size="10.00">variant</text>
</a>
</g>
</g>
<!-- Node10&#45;&gt;Node11 -->
<g id="edge12" class="edge">
<title>Node10&#45;&gt;Node11</title>
<path fill="none" stroke="midnightblue" d="M459.42,-112.08C466.85,-104.22 477.85,-92.57 486.81,-83.08"/>
<polygon fill="midnightblue" stroke="midnightblue" points="489.41,-85.42 493.74,-75.75 484.32,-80.62 489.41,-85.42"/>
</g>
<!-- Node12 -->
<g id="node12" class="node">
<title>Node12</title>
<g id="a_node12"><a xlink:title=" ">
<polygon fill="none" stroke="#bfbfbf" points="401.5,-56.5 401.5,-75.5 458.5,-75.5 458.5,-56.5 401.5,-56.5"/>
<text text-anchor="middle" x="430" y="-63.5" font-family="Helvetica,sans-Serif" font-size="10.00">ostream</text>
</a>
</g>
</g>
<!-- Node10&#45;&gt;Node12 -->
<g id="edge13" class="edge">
<title>Node10&#45;&gt;Node12</title>
<path fill="none" stroke="midnightblue" d="M447.53,-112.08C444.69,-104.77 440.57,-94.18 437.04,-85.1"/>
<polygon fill="midnightblue" stroke="midnightblue" points="440.29,-83.8 433.4,-75.75 433.77,-86.34 440.29,-83.8"/>
</g>
<!-- Node13&#45;&gt;Node4 -->
<g id="edge18" class="edge">
<title>Node13&#45;&gt;Node4</title>
<path fill="none" stroke="midnightblue" d="M214.21,-112.32C225.78,-104.11 243.38,-91.6 257.16,-81.81"/>
<polygon fill="midnightblue" stroke="midnightblue" points="259.44,-84.48 265.57,-75.83 255.39,-78.77 259.44,-84.48"/>
</g>
<!-- Node13&#45;&gt;Node9 -->
<g id="edge17" class="edge">
<title>Node13&#45;&gt;Node9</title>
<path fill="none" stroke="midnightblue" d="M205.86,-112.42C211.95,-99.39 224.71,-74.23 240,-56 249.45,-44.73 261.92,-33.99 272.38,-25.83"/>
<polygon fill="midnightblue" stroke="midnightblue" points="274.73,-28.45 280.6,-19.63 270.51,-22.86 274.73,-28.45"/>
</g>
<!-- Node14 -->
<g id="node14" class="node">
<title>Node14</title>
<g id="a_node14"><a xlink:href="result_8hpp.html" target="_top" xlink:title="轻量 Result&lt;T&gt;">
<polygon fill="none" stroke="black" points="109,-56.5 109,-75.5 193,-75.5 193,-56.5 109,-56.5"/>
<text text-anchor="middle" x="151" y="-63.5" font-family="Helvetica,sans-Serif" font-size="10.00">util/result.hpp</text>
</a>
</g>
</g>
<!-- Node13&#45;&gt;Node14 -->
<g id="edge19" class="edge">
<title>Node13&#45;&gt;Node14</title>
<path fill="none" stroke="midnightblue" d="M193.58,-112.08C186.15,-104.22 175.15,-92.57 166.19,-83.08"/>
<polygon fill="midnightblue" stroke="midnightblue" points="168.68,-80.62 159.26,-75.75 163.59,-85.42 168.68,-80.62"/>
</g>
<!-- Node14&#45;&gt;Node9 -->
<g id="edge21" class="edge">
<title>Node14&#45;&gt;Node9</title>
<path fill="none" stroke="midnightblue" d="M173.5,-56.44C197.08,-47.48 234.32,-33.31 260.96,-23.18"/>
<polygon fill="midnightblue" stroke="midnightblue" points="262.5,-26.34 270.6,-19.52 260.01,-19.8 262.5,-26.34"/>
</g>
<!-- Node15 -->
<g id="node15" class="node">
<title>Node15</title>
<g id="a_node15"><a xlink:title=" ">
<polygon fill="none" stroke="#bfbfbf" points="92,-0.5 92,-19.5 148,-19.5 148,-0.5 92,-0.5"/>
<text text-anchor="middle" x="120" y="-7.5" font-family="Helvetica,sans-Serif" font-size="10.00">optional</text>
</a>
</g>
</g>
<!-- Node14&#45;&gt;Node15 -->
<g id="edge20" class="edge">
<title>Node14&#45;&gt;Node15</title>
<path fill="none" stroke="midnightblue" d="M145.88,-56.08C141.59,-48.61 135.34,-37.72 130.06,-28.52"/>
<polygon fill="midnightblue" stroke="midnightblue" points="133.04,-26.68 125.02,-19.75 126.97,-30.17 133.04,-26.68"/>
</g>
<!-- Node16 -->
<g id="node16" class="node">
<title>Node16</title>
<g id="a_node16"><a xlink:title=" ">
<polygon fill="none" stroke="#bfbfbf" points="166.5,-0.5 166.5,-19.5 211.5,-19.5 211.5,-0.5 166.5,-0.5"/>
<text text-anchor="middle" x="189" y="-7.5" font-family="Helvetica,sans-Serif" font-size="10.00">utility</text>
</a>
</g>
</g>
<!-- Node14&#45;&gt;Node16 -->
<g id="edge22" class="edge">
<title>Node14&#45;&gt;Node16</title>
<path fill="none" stroke="midnightblue" d="M157.27,-56.08C162.64,-48.46 170.52,-37.26 177.08,-27.94"/>
<polygon fill="midnightblue" stroke="midnightblue" points="179.95,-29.94 182.84,-19.75 174.22,-25.91 179.95,-29.94"/>
</g>
</g>
</svg>
