<?xml version="1.0" encoding="UTF-8" standalone="no"?>
<!DOCTYPE svg PUBLIC "-//W3C//DTD SVG 1.1//EN"
 "http://www.w3.org/Graphics/SVG/1.1/DTD/svg11.dtd">
<!-- Generated by graphviz version 2.43.0 (0)
 -->
<!-- Title: include/io/reader.hpp Pages: 1 -->
<svg width="213pt" height="140pt"
 viewBox="0.00 0.00 213.00 140.00" xmlns="http://www.w3.org/2000/svg" xmlns:xlink="http://www.w3.org/1999/xlink">
<g id="graph0" class="graph" transform="scale(1 1) rotate(0) translate(4 136)">
<title>include/io/reader.hpp</title>
<!-- Node1 -->
<g id="node1" class="node">
<title>Node1</title>
<g id="a_node1"><a xlink:title="IO Reader 接口">
<polygon fill="#bfbfbf" stroke="black" points="0,-112.5 0,-131.5 119,-131.5 119,-112.5 0,-112.5"/>
<text text-anchor="middle" x="59.5" y="-119.5" font-family="Helvetica,sans-Serif" font-size="10.00">include/io/reader.hpp</text>
</a>
</g>
</g>
<!-- Node2 -->
<g id="node2" class="node">
<title>Node2</title>
<g id="a_node2"><a xlink:title=" ">
<polygon fill="none" stroke="#bfbfbf" points="19.5,-0.5 19.5,-19.5 63.5,-19.5 63.5,-0.5 19.5,-0.5"/>
<text text-anchor="middle" x="41.5" y="-7.5" font-family="Helvetica,sans-Serif" font-size="10.00">string</text>
</a>
</g>
</g>
<!-- Node1&#45;&gt;Node2 -->
<g id="edge1" class="edge">
<title>Node1&#45;&gt;Node2</title>
<path fill="none" stroke="midnightblue" d="M48.79,-112.3C39.56,-104.07 26.91,-90.79 21.5,-76 15.68,-60.09 22.66,-41.61 29.93,-28.42"/>
<polygon fill="midnightblue" stroke="midnightblue" points="33.14,-29.87 35.33,-19.51 27.15,-26.25 33.14,-29.87"/>
</g>
<!-- Node3 -->
<g id="node3" class="node">
<title>Node3</title>
<g id="a_node3"><a xlink:title=" ">
<polygon fill="none" stroke="#bfbfbf" points="30.5,-56.5 30.5,-75.5 88.5,-75.5 88.5,-56.5 30.5,-56.5"/>
<text text-anchor="middle" x="59.5" y="-63.5" font-family="Helvetica,sans-Serif" font-size="10.00">memory</text>
</a>
</g>
</g>
<!-- Node1&#45;&gt;Node3 -->
<g id="edge2" class="edge">
<title>Node1&#45;&gt;Node3</title>
<path fill="none" stroke="midnightblue" d="M59.5,-112.08C59.5,-105.01 59.5,-94.86 59.5,-85.99"/>
<polygon fill="midnightblue" stroke="midnightblue" points="63,-85.75 59.5,-75.75 56,-85.75 63,-85.75"/>
</g>
<!-- Node4 -->
<g id="node4" class="node">
<title>Node4</title>
<g id="a_node4"><a xlink:href="result_8hpp.html" target="_top" xlink:title="轻量 Result&lt;T&gt;">
<polygon fill="none" stroke="black" points="106.5,-56.5 106.5,-75.5 190.5,-75.5 190.5,-56.5 106.5,-56.5"/>
<text text-anchor="middle" x="148.5" y="-63.5" font-family="Helvetica,sans-Serif" font-size="10.00">util/result.hpp</text>
</a>
</g>
</g>
<!-- Node1&#45;&gt;Node4 -->
<g id="edge3" class="edge">
<title>Node1&#45;&gt;Node4</title>
<path fill="none" stroke="midnightblue" d="M73.8,-112.32C87.68,-103.9 108.99,-90.97 125.3,-81.07"/>
<polygon fill="midnightblue" stroke="midnightblue" points="127.5,-83.83 134.24,-75.65 123.87,-77.85 127.5,-83.83"/>
</g>
<!-- Node4&#45;&gt;Node2 -->
<g id="edge5" class="edge">
<title>Node4&#45;&gt;Node2</title>
<path fill="none" stroke="midnightblue" d="M131.31,-56.32C114.15,-47.66 87.55,-34.24 67.75,-24.25"/>
<polygon fill="midnightblue" stroke="midnightblue" points="69.15,-21.04 58.65,-19.65 66,-27.28 69.15,-21.04"/>
</g>
<!-- Node5 -->
<g id="node5" class="node">
<title>Node5</title>
<g id="a_node5"><a xlink:title=" ">
<polygon fill="none" stroke="#bfbfbf" points="85.5,-0.5 85.5,-19.5 141.5,-19.5 141.5,-0.5 85.5,-0.5"/>
<text text-anchor="middle" x="113.5" y="-7.5" font-family="Helvetica,sans-Serif" font-size="10.00">optional</text>
</a>
</g>
</g>
<!-- Node4&#45;&gt;Node5 -->
<g id="edge4" class="edge">
<title>Node4&#45;&gt;Node5</title>
<path fill="none" stroke="midnightblue" d="M142.72,-56.08C137.83,-48.53 130.67,-37.49 124.67,-28.23"/>
<polygon fill="midnightblue" stroke="midnightblue" points="127.55,-26.24 119.17,-19.75 121.67,-30.05 127.55,-26.24"/>
</g>
<!-- Node6 -->
<g id="node6" class="node">
<title>Node6</title>
<g id="a_node6"><a xlink:title=" ">
<polygon fill="none" stroke="#bfbfbf" points="160,-0.5 160,-19.5 205,-19.5 205,-0.5 160,-0.5"/>
<text text-anchor="middle" x="182.5" y="-7.5" font-family="Helvetica,sans-Serif" font-size="10.00">utility</text>
</a>
</g>
</g>
<!-- Node4&#45;&gt;Node6 -->
<g id="edge6" class="edge">
<title>Node4&#45;&gt;Node6</title>
<path fill="none" stroke="midnightblue" d="M154.11,-56.08C158.87,-48.53 165.82,-37.49 171.65,-28.23"/>
<polygon fill="midnightblue" stroke="midnightblue" points="174.62,-30.08 176.99,-19.75 168.7,-26.35 174.62,-30.08"/>
</g>
</g>
</svg>
