<?xml version="1.0" encoding="UTF-8" standalone="no"?>
<!DOCTYPE svg PUBLIC "-//W3C//DTD SVG 1.1//EN"
 "http://www.w3.org/Graphics/SVG/1.1/DTD/svg11.dtd">
<!-- Generated by graphviz version 2.43.0 (0)
 -->
<!-- Title: src/reader.cpp Pages: 1 -->
<svg width="236pt" height="196pt"
 viewBox="0.00 0.00 236.21 196.00" xmlns="http://www.w3.org/2000/svg" xmlns:xlink="http://www.w3.org/1999/xlink">
<g id="graph0" class="graph" transform="scale(1 1) rotate(0) translate(4 192)">
<title>src/reader.cpp</title>
<!-- Node1 -->
<g id="node1" class="node">
<title>Node1</title>
<g id="a_node1"><a xlink:title=" ">
<polygon fill="#bfbfbf" stroke="black" points="83.71,-168.5 83.71,-187.5 168.71,-187.5 168.71,-168.5 83.71,-168.5"/>
<text text-anchor="middle" x="126.21" y="-175.5" font-family="Helvetica,sans-Serif" font-size="10.00">src/reader.cpp</text>
</a>
</g>
</g>
<!-- Node2 -->
<g id="node2" class="node">
<title>Node2</title>
<g id="a_node2"><a xlink:href="reader_8hpp.html" target="_top" xlink:title="IO Reader 接口">
<polygon fill="none" stroke="black" points="0.21,-112.5 0.21,-131.5 80.21,-131.5 80.21,-112.5 0.21,-112.5"/>
<text text-anchor="middle" x="40.21" y="-119.5" font-family="Helvetica,sans-Serif" font-size="10.00">io/reader.hpp</text>
</a>
</g>
</g>
<!-- Node1&#45;&gt;Node2 -->
<g id="edge1" class="edge">
<title>Node1&#45;&gt;Node2</title>
<path fill="none" stroke="midnightblue" d="M112.39,-168.32C98.98,-159.9 78.38,-146.97 62.62,-137.07"/>
<polygon fill="midnightblue" stroke="midnightblue" points="64.32,-134.01 53.99,-131.65 60.6,-139.94 64.32,-134.01"/>
</g>
<!-- Node8 -->
<g id="node8" class="node">
<title>Node8</title>
<g id="a_node8"><a xlink:title=" ">
<polygon fill="none" stroke="#bfbfbf" points="98.71,-112.5 98.71,-131.5 153.71,-131.5 153.71,-112.5 98.71,-112.5"/>
<text text-anchor="middle" x="126.21" y="-119.5" font-family="Helvetica,sans-Serif" font-size="10.00">fstream</text>
</a>
</g>
</g>
<!-- Node1&#45;&gt;Node8 -->
<g id="edge8" class="edge">
<title>Node1&#45;&gt;Node8</title>
<path fill="none" stroke="midnightblue" d="M126.21,-168.08C126.21,-161.01 126.21,-150.86 126.21,-141.99"/>
<polygon fill="midnightblue" stroke="midnightblue" points="129.71,-141.75 126.21,-131.75 122.71,-141.75 129.71,-141.75"/>
</g>
<!-- Node9 -->
<g id="node9" class="node">
<title>Node9</title>
<g id="a_node9"><a xlink:title=" ">
<polygon fill="none" stroke="#bfbfbf" points="172.21,-112.5 172.21,-131.5 228.21,-131.5 228.21,-112.5 172.21,-112.5"/>
<text text-anchor="middle" x="200.21" y="-119.5" font-family="Helvetica,sans-Serif" font-size="10.00">sstream</text>
</a>
</g>
</g>
<!-- Node1&#45;&gt;Node9 -->
<g id="edge9" class="edge">
<title>Node1&#45;&gt;Node9</title>
<path fill="none" stroke="midnightblue" d="M138.1,-168.32C149.36,-160.11 166.5,-147.6 179.92,-137.81"/>
<polygon fill="midnightblue" stroke="midnightblue" points="182.09,-140.56 188.1,-131.83 177.96,-134.9 182.09,-140.56"/>
</g>
<!-- Node3 -->
<g id="node3" class="node">
<title>Node3</title>
<g id="a_node3"><a xlink:title=" ">
<polygon fill="none" stroke="#bfbfbf" points="0.21,-0.5 0.21,-19.5 44.21,-19.5 44.21,-0.5 0.21,-0.5"/>
<text text-anchor="middle" x="22.21" y="-7.5" font-family="Helvetica,sans-Serif" font-size="10.00">string</text>
</a>
</g>
</g>
<!-- Node2&#45;&gt;Node3 -->
<g id="edge2" class="edge">
<title>Node2&#45;&gt;Node3</title>
<path fill="none" stroke="midnightblue" d="M29.49,-112.3C20.27,-104.07 7.62,-90.79 2.21,-76 -3.61,-60.09 3.37,-41.61 10.64,-28.42"/>
<polygon fill="midnightblue" stroke="midnightblue" points="13.85,-29.87 16.04,-19.51 7.86,-26.25 13.85,-29.87"/>
</g>
<!-- Node4 -->
<g id="node4" class="node">
<title>Node4</title>
<g id="a_node4"><a xlink:title=" ">
<polygon fill="none" stroke="#bfbfbf" points="11.21,-56.5 11.21,-75.5 69.21,-75.5 69.21,-56.5 11.21,-56.5"/>
<text text-anchor="middle" x="40.21" y="-63.5" font-family="Helvetica,sans-Serif" font-size="10.00">memory</text>
</a>
</g>
</g>
<!-- Node2&#45;&gt;Node4 -->
<g id="edge3" class="edge">
<title>Node2&#45;&gt;Node4</title>
<path fill="none" stroke="midnightblue" d="M40.21,-112.08C40.21,-105.01 40.21,-94.86 40.21,-85.99"/>
<polygon fill="midnightblue" stroke="midnightblue" points="43.71,-85.75 40.21,-75.75 36.71,-85.75 43.71,-85.75"/>
</g>
<!-- Node5 -->
<g id="node5" class="node">
<title>Node5</title>
<g id="a_node5"><a xlink:href="result_8hpp.html" target="_top" xlink:title="轻量 Result&lt;T&gt;">
<polygon fill="none" stroke="black" points="87.21,-56.5 87.21,-75.5 171.21,-75.5 171.21,-56.5 87.21,-56.5"/>
<text text-anchor="middle" x="129.21" y="-63.5" font-family="Helvetica,sans-Serif" font-size="10.00">util/result.hpp</text>
</a>
</g>
</g>
<!-- Node2&#45;&gt;Node5 -->
<g id="edge4" class="edge">
<title>Node2&#45;&gt;Node5</title>
<path fill="none" stroke="midnightblue" d="M54.51,-112.32C68.39,-103.9 89.7,-90.97 106.01,-81.07"/>
<polygon fill="midnightblue" stroke="midnightblue" points="108.21,-83.83 114.95,-75.65 104.58,-77.85 108.21,-83.83"/>
</g>
<!-- Node5&#45;&gt;Node3 -->
<g id="edge6" class="edge">
<title>Node5&#45;&gt;Node3</title>
<path fill="none" stroke="midnightblue" d="M112.02,-56.32C94.86,-47.66 68.26,-34.24 48.46,-24.25"/>
<polygon fill="midnightblue" stroke="midnightblue" points="49.86,-21.04 39.36,-19.65 46.71,-27.28 49.86,-21.04"/>
</g>
<!-- Node6 -->
<g id="node6" class="node">
<title>Node6</title>
<g id="a_node6"><a xlink:title=" ">
<polygon fill="none" stroke="#bfbfbf" points="66.21,-0.5 66.21,-19.5 122.21,-19.5 122.21,-0.5 66.21,-0.5"/>
<text text-anchor="middle" x="94.21" y="-7.5" font-family="Helvetica,sans-Serif" font-size="10.00">optional</text>
</a>
</g>
</g>
<!-- Node5&#45;&gt;Node6 -->
<g id="edge5" class="edge">
<title>Node5&#45;&gt;Node6</title>
<path fill="none" stroke="midnightblue" d="M123.43,-56.08C118.54,-48.53 111.38,-37.49 105.38,-28.23"/>
<polygon fill="midnightblue" stroke="midnightblue" points="108.26,-26.24 99.88,-19.75 102.38,-30.05 108.26,-26.24"/>
</g>
<!-- Node7 -->
<g id="node7" class="node">
<title>Node7</title>
<g id="a_node7"><a xlink:title=" ">
<polygon fill="none" stroke="#bfbfbf" points="140.71,-0.5 140.71,-19.5 185.71,-19.5 185.71,-0.5 140.71,-0.5"/>
<text text-anchor="middle" x="163.21" y="-7.5" font-family="Helvetica,sans-Serif" font-size="10.00">utility</text>
</a>
</g>
</g>
<!-- Node5&#45;&gt;Node7 -->
<g id="edge7" class="edge">
<title>Node5&#45;&gt;Node7</title>
<path fill="none" stroke="midnightblue" d="M134.82,-56.08C139.58,-48.53 146.53,-37.49 152.36,-28.23"/>
<polygon fill="midnightblue" stroke="midnightblue" points="155.33,-30.08 157.7,-19.75 149.41,-26.35 155.33,-30.08"/>
</g>
</g>
</svg>
