<?xml version="1.0" encoding="UTF-8" standalone="no"?>
<!DOCTYPE svg PUBLIC "-//W3C//DTD SVG 1.1//EN"
 "http://www.w3.org/Graphics/SVG/1.1/DTD/svg11.dtd">
<!-- Generated by graphviz version 2.43.0 (0)
 -->
<!-- Title: demo::io::Reader::read_one Pages: 1 -->
<svg width="478pt" height="28pt"
 viewBox="0.00 0.00 478.00 28.00" xmlns="http://www.w3.org/2000/svg" xmlns:xlink="http://www.w3.org/1999/xlink">
<g id="graph0" class="graph" transform="scale(1 1) rotate(0) translate(4 24)">
<title>demo::io::Reader::read_one</title>
<!-- Node1 -->
<g id="node1" class="node">
<title>Node1</title>
<g id="a_node1"><a xlink:title=" ">
<polygon fill="#bfbfbf" stroke="black" points="319,-0.5 319,-19.5 470,-19.5 470,-0.5 319,-0.5"/>
<text text-anchor="middle" x="394.5" y="-7.5" font-family="Helvetica,sans-Serif" font-size="10.00">demo::io::Reader::read_one</text>
</a>
</g>
</g>
<!-- Node2 -->
<g id="node2" class="node">
<title>Node2</title>
<g id="a_node2"><a xlink:href="classdemo_1_1algo_1_1Pipeline.html#ac153a7af3483760fd8d086848ebd83e8" target="_top" xlink:title="从 Reader 读取、经过各阶段，构建 AST 并求值">
<polygon fill="none" stroke="black" points="145,-0.5 145,-19.5 283,-19.5 283,-0.5 145,-0.5"/>
<text text-anchor="middle" x="214" y="-7.5" font-family="Helvetica,sans-Serif" font-size="10.00">demo::algo::Pipeline::run</text>
</a>
</g>
</g>
<!-- Node1&#45;&gt;Node2 -->
<g id="edge1" class="edge">
<title>Node1&#45;&gt;Node2</title>
<path fill="none" stroke="midnightblue" d="M308.77,-10C300.17,-10 291.5,-10 283.1,-10"/>
<polygon fill="midnightblue" stroke="midnightblue" points="308.83,-13.5 318.83,-10 308.83,-6.5 308.83,-13.5"/>
</g>
<!-- Node3 -->
<g id="node3" class="node">
<title>Node3</title>
<g id="a_node3"><a xlink:href="main_8cpp.html#af9a602434c9c1a1b4e76795395865330" target="_top" xlink:title="业务主流程">
<polygon fill="none" stroke="black" points="77,-0.5 77,-19.5 109,-19.5 109,-0.5 77,-0.5"/>
<text text-anchor="middle" x="93" y="-7.5" font-family="Helvetica,sans-Serif" font-size="10.00">run</text>
</a>
</g>
</g>
<!-- Node2&#45;&gt;Node3 -->
<g id="edge2" class="edge">
<title>Node2&#45;&gt;Node3</title>
<path fill="none" stroke="midnightblue" d="M134.69,-10C125.19,-10 116.4,-10 109.44,-10"/>
<polygon fill="midnightblue" stroke="midnightblue" points="134.81,-13.5 144.81,-10 134.81,-6.5 134.81,-13.5"/>
</g>
<!-- Node4 -->
<g id="node4" class="node">
<title>Node4</title>
<g id="a_node4"><a xlink:href="main_8cpp.html#ae66f6b31b5ad750f1fe042a706a4e3d4" target="_top" xlink:title=" ">
<polygon fill="none" stroke="black" points="0,-0.5 0,-19.5 41,-19.5 41,-0.5 0,-0.5"/>
<text text-anchor="middle" x="20.5" y="-7.5" font-family="Helvetica,sans-Serif" font-size="10.00">main</text>
</a>
</g>
</g>
<!-- Node3&#45;&gt;Node4 -->
<g id="edge3" class="edge">
<title>Node3&#45;&gt;Node4</title>
<path fill="none" stroke="midnightblue" d="M66.64,-10C58.22,-10 48.98,-10 41.06,-10"/>
<polygon fill="midnightblue" stroke="midnightblue" points="66.7,-13.5 76.7,-10 66.7,-6.5 66.7,-13.5"/>
</g>
</g>
</svg>
