<?xml version="1.0" encoding="UTF-8" standalone="no"?>
<!DOCTYPE svg PUBLIC "-//W3C//DTD SVG 1.1//EN"
 "http://www.w3.org/Graphics/SVG/1.1/DTD/svg11.dtd">
<!-- Generated by graphviz version 2.43.0 (0)
 -->
<!-- Title: demo::core::Node::eval Pages: 1 -->
<svg width="457pt" height="104pt"
 viewBox="0.00 0.00 457.00 104.00" xmlns="http://www.w3.org/2000/svg" xmlns:xlink="http://www.w3.org/1999/xlink">
<g id="graph0" class="graph" transform="scale(1 1) rotate(0) translate(4 100)">
<title>demo::core::Node::eval</title>
<!-- Node1 -->
<g id="node1" class="node">
<title>Node1</title>
<g id="a_node1"><a xlink:title="计算值">
<polygon fill="#bfbfbf" stroke="black" points="319,-38.5 319,-57.5 449,-57.5 449,-38.5 319,-38.5"/>
<text text-anchor="middle" x="384" y="-45.5" font-family="Helvetica,sans-Serif" font-size="10.00">demo::core::Node::eval</text>
</a>
</g>
</g>
<!-- Node2 -->
<g id="node2" class="node">
<title>Node2</title>
<g id="a_node2"><a xlink:href="structdemo_1_1core_1_1Add.html#ad3abc4012f7f87ba477fdae9cfe505c0" target="_top" xlink:title="计算值">
<polygon fill="none" stroke="black" points="152.5,-76.5 152.5,-95.5 275.5,-95.5 275.5,-76.5 152.5,-76.5"/>
<text text-anchor="middle" x="214" y="-83.5" font-family="Helvetica,sans-Serif" font-size="10.00">demo::core::Add::eval</text>
</a>
</g>
</g>
<!-- Node1&#45;&gt;Node2 -->
<g id="edge1" class="edge">
<title>Node1&#45;&gt;Node2</title>
<path fill="none" stroke="midnightblue" d="M330.72,-59.82C307.04,-65.18 279.41,-71.43 257.09,-76.48"/>
<polygon fill="midnightblue" stroke="midnightblue" points="331.63,-63.21 340.61,-57.59 330.08,-56.38 331.63,-63.21"/>
</g>
<!-- Node3 -->
<g id="node3" class="node">
<title>Node3</title>
<g id="a_node3"><a xlink:href="structdemo_1_1core_1_1Mul.html#a0ba786935b439ec75b3dbc93e5a0e589" target="_top" xlink:title="计算值">
<polygon fill="none" stroke="black" points="153,-38.5 153,-57.5 275,-57.5 275,-38.5 153,-38.5"/>
<text text-anchor="middle" x="214" y="-45.5" font-family="Helvetica,sans-Serif" font-size="10.00">demo::core::Mul::eval</text>
</a>
</g>
</g>
<!-- Node1&#45;&gt;Node3 -->
<g id="edge2" class="edge">
<title>Node1&#45;&gt;Node3</title>
<path fill="none" stroke="midnightblue" d="M308.4,-48C297.28,-48 285.94,-48 275.16,-48"/>
<polygon fill="midnightblue" stroke="midnightblue" points="308.53,-51.5 318.53,-48 308.53,-44.5 308.53,-51.5"/>
</g>
<!-- Node4 -->
<g id="node4" class="node">
<title>Node4</title>
<g id="a_node4"><a xlink:href="classdemo_1_1algo_1_1Pipeline.html#ac153a7af3483760fd8d086848ebd83e8" target="_top" xlink:title="从 Reader 读取、经过各阶段，构建 AST 并求值">
<polygon fill="none" stroke="black" points="145,-0.5 145,-19.5 283,-19.5 283,-0.5 145,-0.5"/>
<text text-anchor="middle" x="214" y="-7.5" font-family="Helvetica,sans-Serif" font-size="10.00">demo::algo::Pipeline::run</text>
</a>
</g>
</g>
<!-- Node1&#45;&gt;Node4 -->
<g id="edge3" class="edge">
<title>Node1&#45;&gt;Node4</title>
<path fill="none" stroke="midnightblue" d="M330.72,-36.18C307.04,-30.82 279.41,-24.57 257.09,-19.52"/>
<polygon fill="midnightblue" stroke="midnightblue" points="330.08,-39.62 340.61,-38.41 331.63,-32.79 330.08,-39.62"/>
</g>
<!-- Node5 -->
<g id="node5" class="node">
<title>Node5</title>
<g id="a_node5"><a xlink:href="main_8cpp.html#af9a602434c9c1a1b4e76795395865330" target="_top" xlink:title="业务主流程">
<polygon fill="none" stroke="black" points="77,-0.5 77,-19.5 109,-19.5 109,-0.5 77,-0.5"/>
<text text-anchor="middle" x="93" y="-7.5" font-family="Helvetica,sans-Serif" font-size="10.00">run</text>
</a>
</g>
</g>
<!-- Node4&#45;&gt;Node5 -->
<g id="edge4" class="edge">
<title>Node4&#45;&gt;Node5</title>
<path fill="none" stroke="midnightblue" d="M134.69,-10C125.19,-10 116.4,-10 109.44,-10"/>
<polygon fill="midnightblue" stroke="midnightblue" points="134.81,-13.5 144.81,-10 134.81,-6.5 134.81,-13.5"/>
</g>
<!-- Node6 -->
<g id="node6" class="node">
<title>Node6</title>
<g id="a_node6"><a xlink:href="main_8cpp.html#ae66f6b31b5ad750f1fe042a706a4e3d4" target="_top" xlink:title=" ">
<polygon fill="none" stroke="black" points="0,-0.5 0,-19.5 41,-19.5 41,-0.5 0,-0.5"/>
<text text-anchor="middle" x="20.5" y="-7.5" font-family="Helvetica,sans-Serif" font-size="10.00">main</text>
</a>
</g>
</g>
<!-- Node5&#45;&gt;Node6 -->
<g id="edge5" class="edge">
<title>Node5&#45;&gt;Node6</title>
<path fill="none" stroke="midnightblue" d="M66.64,-10C58.22,-10 48.98,-10 41.06,-10"/>
<polygon fill="midnightblue" stroke="midnightblue" points="66.7,-13.5 76.7,-10 66.7,-6.5 66.7,-13.5"/>
</g>
</g>
</svg>
