<?xml version="1.0" encoding="UTF-8" standalone="no"?>
<!DOCTYPE svg PUBLIC "-//W3C//DTD SVG 1.1//EN"
 "http://www.w3.org/Graphics/SVG/1.1/DTD/svg11.dtd">
<!-- Generated by graphviz version 2.43.0 (0)
 -->
<!-- Title: demo::core::Node::dump Pages: 1 -->
<svg width="316pt" height="104pt"
 viewBox="0.00 0.00 316.00 104.00" xmlns="http://www.w3.org/2000/svg" xmlns:xlink="http://www.w3.org/1999/xlink">
<g id="graph0" class="graph" transform="scale(1 1) rotate(0) translate(4 100)">
<title>demo::core::Node::dump</title>
<!-- Node1 -->
<g id="node1" class="node">
<title>Node1</title>
<g id="a_node1"><a xlink:title=" ">
<polygon fill="#bfbfbf" stroke="black" points="171,-38.5 171,-57.5 308,-57.5 308,-38.5 171,-38.5"/>
<text text-anchor="middle" x="239.5" y="-45.5" font-family="Helvetica,sans-Serif" font-size="10.00">demo::core::Node::dump</text>
</a>
</g>
</g>
<!-- Node2 -->
<g id="node2" class="node">
<title>Node2</title>
<g id="a_node2"><a xlink:href="structdemo_1_1core_1_1Add.html#a42a3bcc8ac053c5bdec347c2c7c6b472" target="_top" xlink:title=" ">
<polygon fill="none" stroke="black" points="2.5,-76.5 2.5,-95.5 132.5,-95.5 132.5,-76.5 2.5,-76.5"/>
<text text-anchor="middle" x="67.5" y="-83.5" font-family="Helvetica,sans-Serif" font-size="10.00">demo::core::Add::dump</text>
</a>
</g>
</g>
<!-- Node1&#45;&gt;Node2 -->
<g id="edge1" class="edge">
<title>Node1&#45;&gt;Node2</title>
<path fill="none" stroke="midnightblue" d="M185.6,-59.82C161.63,-65.18 133.68,-71.43 111.09,-76.48"/>
<polygon fill="midnightblue" stroke="midnightblue" points="186.61,-63.19 195.6,-57.59 185.08,-56.35 186.61,-63.19"/>
</g>
<!-- Node3 -->
<g id="node3" class="node">
<title>Node3</title>
<g id="a_node3"><a xlink:href="structdemo_1_1core_1_1Mul.html#a4ee669d8c15dc8a79f44752344982b1c" target="_top" xlink:title=" ">
<polygon fill="none" stroke="black" points="3,-38.5 3,-57.5 132,-57.5 132,-38.5 3,-38.5"/>
<text text-anchor="middle" x="67.5" y="-45.5" font-family="Helvetica,sans-Serif" font-size="10.00">demo::core::Mul::dump</text>
</a>
</g>
</g>
<!-- Node1&#45;&gt;Node3 -->
<g id="edge2" class="edge">
<title>Node1&#45;&gt;Node3</title>
<path fill="none" stroke="midnightblue" d="M160.55,-48C151.02,-48 141.36,-48 132.08,-48"/>
<polygon fill="midnightblue" stroke="midnightblue" points="160.82,-51.5 170.82,-48 160.82,-44.5 160.82,-51.5"/>
</g>
<!-- Node4 -->
<g id="node4" class="node">
<title>Node4</title>
<g id="a_node4"><a xlink:href="namespacedemo_1_1core.html#a47393290347397d7145ac7e2b10ccb7f" target="_top" xlink:title=" ">
<polygon fill="none" stroke="black" points="0,-0.5 0,-19.5 135,-19.5 135,-0.5 0,-0.5"/>
<text text-anchor="middle" x="67.5" y="-7.5" font-family="Helvetica,sans-Serif" font-size="10.00">demo::core::operator&lt;&lt;</text>
</a>
</g>
</g>
<!-- Node1&#45;&gt;Node4 -->
<g id="edge3" class="edge">
<title>Node1&#45;&gt;Node4</title>
<path fill="none" stroke="midnightblue" d="M185.6,-36.18C161.63,-30.82 133.68,-24.57 111.09,-19.52"/>
<polygon fill="midnightblue" stroke="midnightblue" points="185.08,-39.65 195.6,-38.41 186.61,-32.81 185.08,-39.65"/>
</g>
</g>
</svg>
