<?xml version="1.0" encoding="UTF-8" standalone="no"?>
<!DOCTYPE svg PUBLIC "-//W3C//DTD SVG 1.1//EN"
 "http://www.w3.org/Graphics/SVG/1.1/DTD/svg11.dtd">
<!-- Generated by graphviz version 2.43.0 (0)
 -->
<!-- Title: demo::core::Mul Pages: 1 -->
<svg width="258pt" height="117pt"
 viewBox="0.00 0.00 257.50 117.00" xmlns="http://www.w3.org/2000/svg" xmlns:xlink="http://www.w3.org/1999/xlink">
<g id="graph0" class="graph" transform="scale(1 1) rotate(0) translate(4 113)">
<title>demo::core::Mul</title>
<!-- Node1 -->
<g id="node1" class="node">
<title>Node1</title>
<g id="a_node1"><a xlink:title=" ">
<polygon fill="#bfbfbf" stroke="black" points="71,-0.5 71,-19.5 166,-19.5 166,-0.5 71,-0.5"/>
<text text-anchor="middle" x="118.5" y="-7.5" font-family="Helvetica,sans-Serif" font-size="10.00">demo::core::Mul</text>
</a>
</g>
</g>
<!-- Node2 -->
<g id="node2" class="node">
<title>Node2</title>
<g id="a_node2"><a xlink:href="structdemo_1_1core_1_1Node.html" target="_top" xlink:title=" ">
<polygon fill="none" stroke="black" points="0,-84 0,-103 103,-103 103,-84 0,-84"/>
<text text-anchor="middle" x="51.5" y="-91" font-family="Helvetica,sans-Serif" font-size="10.00">demo::core::Node</text>
</a>
</g>
</g>
<!-- Node2&#45;&gt;Node1 -->
<g id="edge1" class="edge">
<title>Node2&#45;&gt;Node1</title>
<path fill="none" stroke="midnightblue" d="M65.25,-75.77C79.26,-58.73 100.43,-32.98 111.38,-19.66"/>
<polygon fill="midnightblue" stroke="midnightblue" points="62.32,-73.83 58.67,-83.78 67.72,-78.28 62.32,-73.83"/>
</g>
<!-- Node3 -->
<g id="node3" class="node">
<title>Node3</title>
<g id="a_node3"><a xlink:title=" ">
<polygon fill="none" stroke="#bfbfbf" points="121.5,-78.5 121.5,-108.5 249.5,-108.5 249.5,-78.5 121.5,-78.5"/>
<text text-anchor="start" x="129.5" y="-96.5" font-family="Helvetica,sans-Serif" font-size="10.00">std::shared_ptr&lt; demo</text>
<text text-anchor="middle" x="185.5" y="-85.5" font-family="Helvetica,sans-Serif" font-size="10.00">::core::Node &gt;</text>
</a>
</g>
</g>
<!-- Node3&#45;&gt;Node1 -->
<g id="edge2" class="edge">
<title>Node3&#45;&gt;Node1</title>
<path fill="none" stroke="#9a32cd" stroke-dasharray="5,2" d="M167.47,-70.57C153.67,-53.78 135.38,-31.53 125.52,-19.54"/>
<polygon fill="#9a32cd" stroke="#9a32cd" points="164.78,-72.8 173.83,-78.3 170.18,-68.36 164.78,-72.8"/>
<text text-anchor="middle" x="162.5" y="-52" font-family="Helvetica,sans-Serif" font-size="10.00"> a</text>
<text text-anchor="middle" x="162.5" y="-41" font-family="Helvetica,sans-Serif" font-size="10.00">b</text>
</g>
</g>
</svg>
