<?xml version="1.0" encoding="UTF-8" standalone="no"?>
<!DOCTYPE svg PUBLIC "-//W3C//DTD SVG 1.1//EN"
 "http://www.w3.org/Graphics/SVG/1.1/DTD/svg11.dtd">
<!-- Generated by graphviz version 2.43.0 (0)
 -->
<!-- Title: demo::core::Logger::Impl::log Pages: 1 -->
<svg width="506pt" height="88pt"
 viewBox="0.00 0.00 506.00 88.00" xmlns="http://www.w3.org/2000/svg" xmlns:xlink="http://www.w3.org/1999/xlink">
<g id="graph0" class="graph" transform="scale(1 1) rotate(0) translate(4 84)">
<title>demo::core::Logger::Impl::log</title>
<!-- Node1 -->
<g id="node1" class="node">
<title>Node1</title>
<g id="a_node1"><a xlink:title=" ">
<polygon fill="#bfbfbf" stroke="black" points="388,-24.5 388,-54.5 498,-54.5 498,-24.5 388,-24.5"/>
<text text-anchor="start" x="396" y="-42.5" font-family="Helvetica,sans-Serif" font-size="10.00">demo::core::Logger</text>
<text text-anchor="middle" x="443" y="-31.5" font-family="Helvetica,sans-Serif" font-size="10.00">::Impl::log</text>
</a>
</g>
</g>
<!-- Node2 -->
<g id="node2" class="node">
<title>Node2</title>
<g id="a_node2"><a xlink:href="classdemo_1_1core_1_1Logger.html#a5f90af942c703c02ac97e42e2f4db959" target="_top" xlink:title=" ">
<polygon fill="none" stroke="black" points="242,-49.5 242,-79.5 352,-79.5 352,-49.5 242,-49.5"/>
<text text-anchor="start" x="250" y="-67.5" font-family="Helvetica,sans-Serif" font-size="10.00">demo::core::Logger</text>
<text text-anchor="middle" x="297" y="-56.5" font-family="Helvetica,sans-Serif" font-size="10.00">::error</text>
</a>
</g>
</g>
<!-- Node1&#45;&gt;Node2 -->
<g id="edge1" class="edge">
<title>Node1&#45;&gt;Node2</title>
<path fill="none" stroke="midnightblue" d="M378.01,-50.61C369.44,-52.1 360.72,-53.61 352.33,-55.07"/>
<polygon fill="midnightblue" stroke="midnightblue" points="378.72,-54.04 387.97,-48.88 377.52,-47.14 378.72,-54.04"/>
</g>
<!-- Node6 -->
<g id="node5" class="node">
<title>Node6</title>
<g id="a_node5"><a xlink:href="classdemo_1_1core_1_1Logger.html#ac85d0c6081d9b29f67de2a4d835ec425" target="_top" xlink:title=" ">
<polygon fill="none" stroke="black" points="242,-0.5 242,-30.5 352,-30.5 352,-0.5 242,-0.5"/>
<text text-anchor="start" x="250" y="-18.5" font-family="Helvetica,sans-Serif" font-size="10.00">demo::core::Logger</text>
<text text-anchor="middle" x="297" y="-7.5" font-family="Helvetica,sans-Serif" font-size="10.00">::info</text>
</a>
</g>
</g>
<!-- Node1&#45;&gt;Node6 -->
<g id="edge4" class="edge">
<title>Node1&#45;&gt;Node6</title>
<path fill="none" stroke="midnightblue" d="M378.01,-28.83C369.44,-27.41 360.72,-25.95 352.33,-24.56"/>
<polygon fill="midnightblue" stroke="midnightblue" points="377.53,-32.3 387.97,-30.5 378.68,-25.4 377.53,-32.3"/>
</g>
<!-- Node3 -->
<g id="node3" class="node">
<title>Node3</title>
<g id="a_node3"><a xlink:href="classdemo_1_1algo_1_1Pipeline.html#ac153a7af3483760fd8d086848ebd83e8" target="_top" xlink:title="从 Reader 读取、经过各阶段，构建 AST 并求值">
<polygon fill="none" stroke="black" points="68,-44 68,-63 206,-63 206,-44 68,-44"/>
<text text-anchor="middle" x="137" y="-51" font-family="Helvetica,sans-Serif" font-size="10.00">demo::algo::Pipeline::run</text>
</a>
</g>
</g>
<!-- Node2&#45;&gt;Node3 -->
<g id="edge2" class="edge">
<title>Node2&#45;&gt;Node3</title>
<path fill="none" stroke="midnightblue" d="M231.55,-60.01C223.18,-59.43 214.58,-58.83 206.15,-58.24"/>
<polygon fill="midnightblue" stroke="midnightblue" points="231.41,-63.51 241.63,-60.71 231.89,-56.53 231.41,-63.51"/>
</g>
<!-- Node4 -->
<g id="node4" class="node">
<title>Node4</title>
<g id="a_node4"><a xlink:href="main_8cpp.html#af9a602434c9c1a1b4e76795395865330" target="_top" xlink:title="业务主流程">
<polygon fill="none" stroke="red" points="0,-25 0,-44 32,-44 32,-25 0,-25"/>
<text text-anchor="middle" x="16" y="-32" font-family="Helvetica,sans-Serif" font-size="10.00">run</text>
</a>
</g>
</g>
<!-- Node3&#45;&gt;Node4 -->
<g id="edge3" class="edge">
<title>Node3&#45;&gt;Node4</title>
<path fill="none" stroke="midnightblue" d="M65.95,-42.31C53.34,-40.3 41.38,-38.39 32.45,-36.97"/>
<polygon fill="midnightblue" stroke="midnightblue" points="65.72,-45.82 76.15,-43.94 66.83,-38.91 65.72,-45.82"/>
</g>
<!-- Node6&#45;&gt;Node3 -->
<g id="edge6" class="edge">
<title>Node6&#45;&gt;Node3</title>
<path fill="none" stroke="midnightblue" d="M231.84,-30.93C213.45,-35.35 193.94,-40.05 177.51,-44"/>
<polygon fill="midnightblue" stroke="midnightblue" points="232.72,-34.32 241.63,-28.58 231.08,-27.51 232.72,-34.32"/>
</g>
<!-- Node6&#45;&gt;Node4 -->
<g id="edge5" class="edge">
<title>Node6&#45;&gt;Node4</title>
<path fill="none" stroke="midnightblue" d="M231.65,-19.88C166.2,-24.34 69.29,-30.94 32.2,-33.47"/>
<polygon fill="midnightblue" stroke="midnightblue" points="232.14,-23.36 241.88,-19.19 231.66,-16.37 232.14,-23.36"/>
</g>
</g>
</svg>
